<?xml version="1.0" encoding="UTF-8"?>
<svg width="959px" height="619px" viewBox="0 0 959 619" version="1.1" xmlns="http://www.w3.org/2000/svg" xmlns:xlink="http://www.w3.org/1999/xlink">
    <!-- Generator: Sketch 45.1 (43504) - http://www.bohemiancoding.com/sketch -->
    <title>Illustration_01</title>
    <desc>Created with Sketch.</desc>
    <defs></defs>
    <g id="Page-1" stroke="none" stroke-width="1" fill="none" fill-rule="evenodd">
        <g id="Illustration_01">
            <path d="M13.5,524.3 C-65.9,444.9 247.6,473.7 247.6,473.7 C247.6,473.7 803.9,518.9 923.5,530.8 C1027.8,541.1 879.7,625.3 750.7,572.3 C711.4,556.1 672.6,565.4 570.3,585 C360.4,625 463.3,493.7 319.8,540.2 C-92.9,673.9 51.3,562.1 13.5,524.3 Z" id="Shape" fill="#ECF3FF" fill-rule="nonzero"></path>
            <circle id="Oval" fill="#ECF3FF" fill-rule="nonzero" cx="565.9" cy="417.8" r="57.1"></circle>
            <g id="Group" transform="translate(398.000000, 343.000000)" fill-rule="nonzero" fill="#FF6000">
                <polygon id="Shape" points="136.6 53.1 134.6 52.6 135 50.8 133.7 49.5 135.2 48 137.4 50.2"></polygon>
                <path d="M131.1,46.9 L127.5,43.3 L129,41.8 L132.6,45.4 L131.1,46.9 Z M124.9,40.7 L121.3,37.1 L122.8,35.6 L126.4,39.2 L124.9,40.7 Z M118.8,34.5 L115.2,30.9 L116.7,29.4 L120.3,33 L118.8,34.5 Z M112.6,28.3 L109,24.7 L110.5,23.2 L114.1,26.8 L112.6,28.3 Z M106.4,22.2 L102.8,18.6 L104.3,17.1 L107.9,20.7 L106.4,22.2 Z M100.2,16 L96.6,12.4 L98.1,10.9 L101.7,14.5 L100.2,16 Z M94.1,9.8 L90.5,6.2 L92,4.7 L95.6,8.3 L94.1,9.8 Z" id="Shape"></path>
                <polygon id="Shape" points="87.9 3.7 86.6 2.3 84.8 2.8 84.2 0.8 87.2 0 89.4 2.1"></polygon>
                <path d="M25.7,18.6 L25.2,16.5 L30.1,15.2 L30.6,17.3 L25.7,18.6 Z M34.2,16.4 L33.6,14.3 L38.5,13 L39.1,15.1 L34.2,16.4 Z M42.6,14.1 L42.1,12 L47,10.7 L47.5,12.8 L42.6,14.1 Z M51,11.9 L50.5,9.8 L55.4,8.5 L55.9,10.6 L51,11.9 Z M59.5,9.6 L58.9,7.5 L63.8,6.2 L64.4,8.3 L59.5,9.6 Z M67.9,7.3 L67.4,5.2 L72.3,3.9 L72.8,6 L67.9,7.3 Z M76.3,5.1 L75.7,3 L80.6,1.7 L81.2,3.8 L76.3,5.1 Z" id="Shape"></path>
                <polygon id="Shape" points="19.9 21.9 17.8 21.3 18.6 18.3 21.6 17.5 22.2 19.6 20.4 20.1"></polygon>
                <path d="M4.1,80.9 L2,80.3 L3.3,75.4 L5.4,76 L4.1,80.9 Z M6.3,72.5 L4.2,71.9 L5.5,67 L7.6,67.6 L6.3,72.5 Z M8.6,64 L6.5,63.5 L7.8,58.6 L9.9,59.1 L8.6,64 Z M10.9,55.6 L8.8,55 L10.1,50.1 L12.2,50.7 L10.9,55.6 Z M13.1,47.2 L11,46.6 L12.3,41.7 L14.4,42.3 L13.1,47.2 Z M15.4,38.7 L13.3,38.2 L14.6,33.3 L16.7,33.8 L15.4,38.7 Z M17.6,30.3 L15.5,29.7 L16.8,24.8 L18.9,25.4 L17.6,30.3 Z" id="Shape"></path>
                <polygon id="Shape" points="2.5 89.1 0.3 86.9 1.1 83.9 3.1 84.5 2.6 86.3 4 87.6"></polygon>
                <path d="M45.7,132.3 L42.1,128.7 L43.6,127.2 L47.2,130.8 L45.7,132.3 Z M39.5,126.1 L35.9,122.5 L37.4,121 L41,124.6 L39.5,126.1 Z M33.3,120 L29.7,116.4 L31.2,114.9 L34.8,118.5 L33.3,120 Z M27.1,113.8 L23.5,110.2 L25,108.7 L28.6,112.3 L27.1,113.8 Z M21,107.6 L17.4,104 L18.9,102.5 L22.5,106.1 L21,107.6 Z M14.8,101.4 L11.2,97.8 L12.7,96.3 L16.3,99.9 L14.8,101.4 Z M8.6,95.3 L5,91.7 L6.5,90.2 L10.1,93.8 L8.6,95.3 Z" id="Shape"></path>
                <polygon id="Shape" points="50.5 137.1 48.3 134.9 49.8 133.4 51.1 134.7 52.9 134.3 53.5 136.3"></polygon>
                <path d="M57,135.4 L56.4,133.3 L61.3,132 L61.9,134.1 L57,135.4 Z M65.5,133.1 L65,131 L69.9,129.7 L70.4,131.8 L65.5,133.1 Z M73.9,130.8 L73.3,128.7 L78.2,127.4 L78.8,129.5 L73.9,130.8 Z M82.3,128.6 L81.8,126.5 L86.7,125.2 L87.2,127.3 L82.3,128.6 Z M90.8,126.3 L90.3,124.2 L95.2,122.9 L95.7,125 L90.8,126.3 Z M99.2,124.1 L98.6,122 L103.5,120.7 L104.1,122.8 L99.2,124.1 Z M107.6,121.8 L107.1,119.7 L112,118.4 L112.5,120.5 L107.6,121.8 Z" id="Shape"></path>
                <polygon id="Shape" points="116.1 119.5 115.5 117.5 117.3 117 117.8 115.2 119.8 115.7 119 118.7"></polygon>
                <path d="M120.8,112.2 L118.7,111.6 L120,106.7 L122.1,107.3 L120.8,112.2 Z M123.1,103.7 L121,103.2 L122.3,98.3 L124.4,98.8 L123.1,103.7 Z M125.3,95.3 L123.2,94.7 L124.5,89.8 L126.6,90.4 L125.3,95.3 Z M127.6,86.9 L125.5,86.4 L126.8,81.5 L128.9,82 L127.6,86.9 Z M129.8,78.4 L127.7,77.9 L129,73 L131.1,73.5 L129.8,78.4 Z M132.1,70 L130,69.4 L131.3,64.5 L133.4,65.1 L132.1,70 Z M134.4,61.6 L132.3,61.1 L133.6,56.2 L135.7,56.7 L134.4,61.6 Z" id="Shape"></path>
            </g>
            <polygon id="Shape" fill="#ECF3FF" fill-rule="nonzero" points="416.2 104.9 366.8 55.6 299.4 73.6 281.4 141 330.7 190.4 398.1 172.3"></polygon>
            <path d="M825.7,469.7 C823.4,472.6 812.9,466.9 813.3,474.2 C814.1,487.1 804.9,484.3 804.3,483.8 C803.5,483.2 806.4,471.7 814.7,461.2 C823,450.7 833.3,445 834.2,445.7 C834.8,446.2 836.2,454.9 827.1,456.6 C823.5,457.1 828.5,466.2 825.7,469.7 Z" id="Shape" fill="#8CC63F" fill-rule="nonzero"></path>
            <path d="M822.4,459.2 C821.5,462.8 809.6,462 813,468.4 C819.1,479.8 809.6,481 808.8,480.8 C807.9,480.6 805.7,468.9 808.8,455.9 C811.9,442.9 819,433.4 820.1,433.7 C820.9,433.9 825.8,441.3 818.1,446.5 C815.2,448.7 823.5,454.8 822.4,459.2 Z" id="Shape" fill="#39B54A" fill-rule="nonzero"></path>
            <path d="M760,461.2 C762.6,466.3 780.4,460.7 777.5,471.7 C772.4,491.2 787.3,489.5 788.4,488.9 C789.7,488.2 788.7,469.8 779.2,451.3 C769.7,432.8 755.5,421.1 754.1,421.9 C753,422.5 748.3,435.4 761.8,440.6 C767.2,442.6 756.9,455 760,461.2 Z" id="Shape" fill="#007C3E" fill-rule="nonzero"></path>
            <circle id="Oval" fill="#ECF3FF" fill-rule="nonzero" cx="714.7" cy="193.2" r="178.2"></circle>
            <path d="M702.6,359.3 L701.5,359.3 C700.6,359.3 699.6,359.3 698.7,359.3 L697.6,359.3 L697.6,357.2 L698.7,357.2 C699.6,357.2 700.5,357.2 701.4,357.2 L702.5,357.2 L702.6,359.3 Z M706.1,359.2 L706,357.1 L707.1,357.1 C708,357.1 709,357 709.9,357 L711,357 L711.1,359.1 L710,359.2 C709.1,359.2 708.1,359.3 707.2,359.3 L706.1,359.2 Z M694,359.1 L692.9,359.1 C692,359.1 691,359 690.1,358.9 L689,358.8 L689.1,356.7 L690.2,356.8 C691.1,356.9 692.1,356.9 693,357 L694.1,357 L694,359.1 Z M714.7,358.8 L714.5,356.7 L715.6,356.6 C716.5,356.5 717.5,356.4 718.4,356.4 L719.5,356.3 L719.7,358.4 L718.6,358.5 C717.7,358.6 716.7,358.7 715.8,358.7 L714.7,358.8 Z M685.5,358.6 L684.4,358.5 C683.5,358.4 682.5,358.3 681.6,358.2 L680.5,358.1 L680.7,356 L681.8,356.1 C682.7,356.2 683.7,356.3 684.6,356.4 L685.7,356.5 L685.5,358.6 Z M723.1,358 L722.8,355.9 L723.9,355.8 C724.8,355.7 725.8,355.6 726.7,355.4 L727.8,355.2 L728.1,357.3 L727,357.5 C726.1,357.6 725.1,357.8 724.2,357.9 L723.1,358 Z M677,357.6 L675.9,357.5 C675,357.4 674,357.2 673.1,357.1 L672.1,356.9 L672.4,354.8 L673.4,355 C674.3,355.1 675.3,355.3 676.2,355.4 L677.3,355.5 L677,357.6 Z M731.6,356.8 L731.2,354.7 L732.2,354.5 C733.1,354.3 734,354.2 735,354 L736,353.8 L736.4,355.9 L735.4,356.1 C734.5,356.3 733.5,356.4 732.6,356.6 L731.6,356.8 Z M668.6,356.3 L667.6,356.1 C666.7,355.9 665.7,355.7 664.8,355.5 L663.8,355.3 L664.2,353.2 L665.2,353.4 C666.1,353.6 667,353.8 668,353.9 L669,354.1 L668.6,356.3 Z M740,355.1 L739.5,353 L740.5,352.8 C741.4,352.6 742.3,352.4 743.2,352.2 L744.2,352 L744.7,354.1 L743.7,354.4 C742.8,354.6 741.9,354.8 740.9,355 L740,355.1 Z M660.3,354.5 L659.3,354.3 C658.4,354.1 657.5,353.8 656.5,353.6 L655.5,353.3 L656,351.2 L657,351.5 C657.9,351.7 658.8,352 659.7,352.2 L660.7,352.4 L660.3,354.5 Z M748.2,353.1 L747.6,351.1 L748.6,350.8 C749.5,350.6 750.4,350.3 751.3,350 L752.3,349.7 L752.9,351.7 L751.9,352 C751,352.3 750.1,352.5 749.2,352.8 L748.2,353.1 Z M652,352.4 L651,352.1 C650.1,351.8 649.2,351.6 648.3,351.3 L647.3,351 L647.9,349 L648.9,349.3 C649.8,349.6 650.7,349.8 651.6,350.1 L652.6,350.4 L652,352.4 Z M756.4,350.7 L755.7,348.7 L756.7,348.4 C757.6,348.1 758.5,347.8 759.4,347.5 L760.4,347.2 L761.1,349.2 L760.1,349.5 C759.2,349.8 758.3,350.1 757.4,350.4 L756.4,350.7 Z M643.9,349.8 L642.9,349.5 C642,349.2 641.1,348.9 640.2,348.5 L639.2,348.1 L639.9,346.1 L640.9,346.5 C641.8,346.8 642.7,347.1 643.6,347.4 L644.6,347.7 L643.9,349.8 Z M764.5,347.9 L763.7,345.9 L764.7,345.5 C765.6,345.2 766.4,344.8 767.3,344.5 L768.3,344.1 L769.1,346.1 L768.1,346.5 C767.2,346.9 766.3,347.2 765.5,347.5 L764.5,347.9 Z M635.8,346.9 L634.8,346.5 C633.9,346.1 633,345.8 632.2,345.4 L631.2,345 L632,343 L633,343.4 C633.9,343.8 634.7,344.1 635.6,344.5 L636.6,344.9 L635.8,346.9 Z M772.4,344.7 L771.5,342.8 L772.5,342.4 C773.4,342 774.2,341.6 775.1,341.3 L776.1,340.9 L777,342.8 L776,343.2 C775.1,343.6 774.3,344 773.4,344.4 L772.4,344.7 Z M627.9,343.6 L626.9,343.2 C626,342.8 625.2,342.4 624.3,342 L623.3,341.5 L624.2,339.6 L625.2,340.1 C626,340.5 626.9,340.9 627.8,341.3 L628.8,341.7 L627.9,343.6 Z M780.1,341.1 L779.2,339.2 L780.2,338.7 C781,338.3 781.9,337.9 782.7,337.4 L783.6,336.9 L784.6,338.8 L783.7,339.3 C782.9,339.7 782,340.2 781.2,340.6 L780.1,341.1 Z M620.2,339.9 L619.3,339.4 C618.5,339 617.6,338.5 616.8,338.1 L615.9,337.6 L616.9,335.7 L617.8,336.2 C618.6,336.6 619.5,337.1 620.3,337.5 L621.2,338 L620.2,339.9 Z M787.7,337.2 L786.7,335.3 L787.6,334.8 C788.4,334.3 789.2,333.9 790,333.4 L790.9,332.9 L792,334.7 L791.1,335.2 C790.3,335.7 789.5,336.1 788.6,336.6 L787.7,337.2 Z M612.7,335.8 L611.8,335.3 C611,334.8 610.2,334.3 609.3,333.9 L608.4,333.4 L609.5,331.6 L610.4,332.1 C611.2,332.6 612,333.1 612.8,333.5 L613.7,334 L612.7,335.8 Z M795,332.9 L793.9,331.1 L794.8,330.5 C795.6,330 796.4,329.5 797.2,329 L798.1,328.4 L799.3,330.2 L798.4,330.8 C797.6,331.3 796.8,331.8 796,332.3 L795,332.9 Z M605.4,331.4 L604.5,330.8 C603.7,330.3 602.9,329.8 602.1,329.2 L601.2,328.6 L602.4,326.8 L603.3,327.4 C604.1,327.9 604.9,328.4 605.7,328.9 L606.6,329.5 L605.4,331.4 Z M802.2,328.3 L801,326.6 L801.9,326 C802.7,325.5 803.4,324.9 804.2,324.4 L805.1,323.8 L806.3,325.5 L805.4,326.1 C804.6,326.6 803.9,327.2 803.1,327.7 L802.2,328.3 Z M598.3,326.7 L597.4,326.1 C596.6,325.5 595.9,325 595.1,324.4 L594.2,323.8 L595.5,322.1 L596.4,322.7 C597.2,323.3 597.9,323.8 598.7,324.4 L599.6,325 L598.3,326.7 Z M809.1,323.4 L807.8,321.7 L808.6,321.1 C809.3,320.5 810.1,320 810.8,319.4 L811.6,318.7 L812.9,320.4 L812.1,321.1 C811.4,321.7 810.6,322.3 809.9,322.8 L809.1,323.4 Z M591.4,321.6 L590.6,320.9 C589.9,320.3 589.1,319.7 588.4,319.1 L587.6,318.4 L588.9,316.8 L589.7,317.5 C590.4,318.1 591.2,318.7 591.9,319.3 L592.7,320 L591.4,321.6 Z M815.8,318.1 L814.4,316.5 L815.2,315.8 C815.9,315.2 816.6,314.6 817.3,314 L818.1,313.3 L819.5,314.9 L818.7,315.6 C818,316.2 817.3,316.8 816.5,317.4 L815.8,318.1 Z M584.8,316.2 L584,315.5 C583.3,314.9 582.6,314.3 581.9,313.6 L581.1,312.9 L582.5,311.3 L583.3,312 C584,312.6 584.7,313.2 585.4,313.9 L586.2,314.6 L584.8,316.2 Z M822.2,312.5 L820.8,310.9 L821.6,310.2 C822.3,309.6 823,308.9 823.6,308.3 L824.4,307.6 L825.9,309.1 L825.1,309.8 C824.4,310.5 823.7,311.1 823,311.7 L822.2,312.5 Z M578.5,310.5 L577.7,309.8 C577,309.1 576.3,308.5 575.7,307.8 L574.9,307.1 L576.4,305.6 L577.2,306.3 C577.9,307 578.5,307.6 579.2,308.3 L580,309 L578.5,310.5 Z M828.4,306.6 L826.9,305.1 L827.6,304.3 C828.3,303.6 828.9,303 829.6,302.3 L830.3,301.5 L831.8,303 L831.1,303.8 C830.4,304.5 829.8,305.2 829.1,305.8 L828.4,306.6 Z M572.4,304.5 L571.7,303.7 C571,303 570.4,302.3 569.8,301.6 L569.1,300.8 L570.7,299.4 L571.4,300.2 C572,300.9 572.7,301.6 573.3,302.2 L574,303 L572.4,304.5 Z M834.3,300.4 L832.7,299 L833.4,298.2 C834,297.5 834.6,296.8 835.3,296.1 L836,295.3 L837.6,296.7 L836.9,297.5 C836.3,298.2 835.7,298.9 835,299.6 L834.3,300.4 Z M566.6,298.2 L565.9,297.4 C565.3,296.7 564.7,296 564.1,295.2 L563.4,294.4 L565,293 L565.7,293.8 C566.3,294.5 566.9,295.2 567.5,295.9 L568.2,296.7 L566.6,298.2 Z M839.9,293.9 L838.3,292.6 L839,291.8 C839.6,291.1 840.2,290.3 840.8,289.6 L841.5,288.8 L843.2,290.1 L842.5,290.9 C841.9,291.6 841.3,292.4 840.7,293.1 L839.9,293.9 Z M561.2,291.7 L560.5,290.9 C559.9,290.2 559.3,289.4 558.8,288.7 L558.2,287.9 L559.9,286.6 L560.5,287.4 C561.1,288.1 561.6,288.9 562.2,289.6 L562.9,290.4 L561.2,291.7 Z M845.1,287.2 L843.4,285.9 L844,285 C844.6,284.2 845.1,283.5 845.7,282.7 L846.3,281.8 L848,283 L847.4,283.9 C846.8,284.7 846.3,285.4 845.7,286.2 L845.1,287.2 Z M556,284.9 L555.4,284 C554.9,283.2 554.3,282.5 553.8,281.7 L553.2,280.8 L555,279.6 L555.6,280.5 C556.1,281.3 556.7,282 557.2,282.8 L557.8,283.7 L556,284.9 Z M850.1,280.3 L848.3,279.1 L848.9,278.2 C849.4,277.4 849.9,276.6 850.4,275.8 L851,274.9 L852.8,276.1 L852.2,277 C851.7,277.8 851.2,278.6 850.6,279.4 L850.1,280.3 Z M551.2,277.8 L550.6,276.9 C550.1,276.1 549.6,275.3 549.1,274.5 L548.5,273.6 L550.3,272.5 L550.9,273.4 C551.4,274.2 551.9,275 552.4,275.8 L553,276.7 L551.2,277.8 Z M854.7,273.1 L852.9,272 L853.4,271.1 C853.9,270.3 854.4,269.5 854.8,268.7 L855.3,267.8 L857.1,268.9 L856.6,269.8 C856.1,270.6 855.6,271.4 855.2,272.3 L854.7,273.1 Z M546.7,270.6 L546.2,269.7 C545.7,268.9 545.3,268.1 544.8,267.2 L544.3,266.3 L546.2,265.3 L546.7,266.2 C547.2,267 547.6,267.8 548.1,268.6 L548.6,269.5 L546.7,270.6 Z M859,265.7 L857.1,264.7 L857.6,263.8 C858,263 858.5,262.1 858.9,261.3 L859.4,260.4 L861.3,261.4 L860.8,262.3 C860.4,263.1 859.9,264 859.5,264.8 L859,265.7 Z M542.6,263.2 L542.1,262.3 C541.7,261.5 541.2,260.6 540.8,259.8 L540.3,258.8 L542.2,257.9 L542.7,258.9 C543.1,259.7 543.5,260.6 544,261.4 L544.5,262.3 L542.6,263.2 Z M862.9,258.1 L861,257.2 L861.5,256.2 C861.9,255.4 862.3,254.5 862.7,253.6 L863.1,252.6 L865,253.5 L864.6,254.5 C864.2,255.4 863.8,256.2 863.4,257.1 L862.9,258.1 Z M538.8,255.5 L538.4,254.5 C538,253.6 537.6,252.8 537.2,251.9 L536.8,250.9 L538.7,250 L539.1,251 C539.5,251.9 539.9,252.7 540.2,253.6 L540.6,254.6 L538.8,255.5 Z M866.4,250.3 L864.4,249.5 L864.8,248.5 C865.2,247.6 865.5,246.8 865.9,245.9 L866.3,244.9 L868.3,245.7 L867.9,246.7 C867.5,247.6 867.2,248.5 866.8,249.3 L866.4,250.3 Z M535.4,247.7 L535,246.7 C534.6,245.8 534.3,244.9 534,244.1 L533.6,243.1 L535.6,242.3 L536,243.3 C536.3,244.2 536.7,245 537,245.9 L537.4,246.9 L535.4,247.7 Z M869.6,242.3 L867.6,241.6 L868,240.6 C868.3,239.7 868.6,238.8 868.9,237.9 L869.2,236.9 L871.2,237.6 L870.9,238.6 C870.6,239.5 870.3,240.4 869.9,241.3 L869.6,242.3 Z M532.4,239.8 L532.1,238.8 C531.8,237.9 531.5,237 531.2,236.1 L530.9,235.1 L532.9,234.4 L533.2,235.4 C533.5,236.3 533.8,237.2 534.1,238.1 L534.4,239.1 L532.4,239.8 Z M872.4,234.2 L870.4,233.6 L870.7,232.6 C871,231.7 871.2,230.8 871.5,229.9 L871.8,228.9 L873.8,229.5 L873.5,230.5 C873.2,231.4 873,232.3 872.7,233.2 L872.4,234.2 Z M529.7,231.7 L529.4,230.7 C529.1,229.8 528.9,228.9 528.6,228 L528.3,227 L530.3,226.4 L530.6,227.4 C530.8,228.3 531.1,229.2 531.4,230.1 L531.7,231.1 L529.7,231.7 Z M874.7,226.1 L872.6,225.6 L872.9,224.6 C873.1,223.7 873.4,222.8 873.6,221.9 L873.8,220.9 L875.9,221.4 L875.7,222.4 C875.5,223.3 875.2,224.2 875,225.2 L874.7,226.1 Z M527.5,223.4 L527.2,222.4 C527,221.5 526.8,220.6 526.6,219.6 L526.4,218.6 L528.5,218.1 L528.7,219.1 C528.9,220 529.1,220.9 529.3,221.8 L529.5,222.8 L527.5,223.4 Z M876.7,217.8 L874.6,217.4 L874.8,216.4 C875,215.5 875.2,214.6 875.4,213.6 L875.6,212.6 L877.7,213 L877.5,214 C877.3,214.9 877.1,215.9 876.9,216.8 L876.7,217.8 Z M525.6,215.1 L525.4,214.1 C525.2,213.2 525,212.2 524.9,211.3 L524.7,210.3 L526.8,209.9 L527,210.9 C527.2,211.8 527.3,212.7 527.5,213.7 L527.7,214.7 L525.6,215.1 Z M878.3,209.4 L876.2,209.1 L876.4,208.1 C876.5,207.2 876.7,206.2 876.8,205.3 L876.9,204.2 L879,204.5 L878.8,205.6 C878.7,206.5 878.5,207.5 878.4,208.4 L878.3,209.4 Z M524.1,206.7 L523.9,205.6 C523.8,204.7 523.6,203.7 523.5,202.8 L523.4,201.7 L525.5,201.4 L525.6,202.5 C525.7,203.4 525.8,204.4 526,205.3 L526.2,206.4 L524.1,206.7 Z M879.5,200.9 L877.4,200.7 L877.5,199.6 C877.6,198.7 877.7,197.7 877.8,196.8 L877.9,195.7 L880,195.9 L879.9,197 C879.8,197.9 879.7,198.9 879.6,199.8 L879.5,200.9 Z M523.1,198.2 L523,197.1 C522.9,196.2 522.8,195.2 522.8,194.3 L522.7,193.2 L524.8,193 L524.9,194.1 C525,195 525.1,196 525.1,196.9 L525.2,198 L523.1,198.2 Z M880.3,192.4 L878.2,192.3 L878.3,191.2 C878.4,190.3 878.4,189.3 878.5,188.4 L878.5,187.3 L880.6,187.4 L880.6,188.5 C880.6,189.4 880.5,190.4 880.4,191.3 L880.3,192.4 Z M522.4,189.7 L522.3,188.6 C522.3,187.7 522.2,186.7 522.2,185.8 L522.2,184.7 L524.3,184.6 L524.3,185.7 C524.3,186.6 524.4,187.6 524.4,188.5 L524.5,189.6 L522.4,189.7 Z M880.7,183.9 L878.6,183.9 L878.6,182.8 C878.6,181.9 878.6,180.9 878.6,180 L878.6,178.7 L880.7,178.7 L880.7,180 C880.7,180.9 880.7,181.9 880.7,182.8 L880.7,183.9 Z M524.3,181.2 L522.2,181.2 L522.2,180 C522.2,179.1 522.2,178.2 522.2,177.3 L522.2,176.2 L524.3,176.2 L524.3,177.3 C524.3,178.2 524.3,179.1 524.3,180 L524.3,181.2 Z M878.5,175.2 L878.5,174.1 C878.5,173.2 878.4,172.2 878.4,171.3 L878.3,170.2 L880.4,170.1 L880.5,171.2 C880.5,172.1 880.6,173.1 880.6,174 L880.6,175.1 L878.5,175.2 Z M524.4,172.8 L522.3,172.7 L522.3,171.6 C522.3,170.7 522.4,169.7 522.5,168.8 L522.6,167.7 L524.7,167.8 L524.6,168.9 C524.5,169.8 524.5,170.8 524.4,171.7 L524.4,172.8 Z M878.1,166.8 L878,165.7 C877.9,164.8 877.8,163.8 877.8,162.9 L877.7,161.8 L879.8,161.6 L879.9,162.7 C880,163.6 880.1,164.6 880.1,165.5 L880.2,166.6 L878.1,166.8 Z M525,164.4 L522.9,164.2 L523,163.1 C523.1,162.2 523.2,161.2 523.3,160.3 L523.4,159.2 L525.5,159.4 L525.4,160.5 C525.3,161.4 525.2,162.4 525.1,163.3 L525,164.4 Z M877.3,158.4 L877.2,157.3 C877.1,156.4 877,155.4 876.8,154.5 L876.6,153.4 L878.7,153.1 L878.9,154.2 C879,155.1 879.2,156.1 879.3,157 L879.4,158.1 L877.3,158.4 Z M525.9,156 L523.8,155.7 L523.9,154.6 C524,153.7 524.2,152.7 524.3,151.8 L524.5,150.8 L526.6,151.1 L526.4,152.2 C526.3,153.1 526.1,154.1 526,155 L525.9,156 Z M876.1,150 L875.9,149 C875.7,148.1 875.6,147.2 875.4,146.2 L875.2,145.2 L877.3,144.8 L877.5,145.8 C877.7,146.7 877.9,147.7 878,148.6 L878.2,149.6 L876.1,150 Z M527.2,147.7 L525.1,147.3 L525.3,146.3 C525.5,145.4 525.7,144.4 525.9,143.5 L526.1,142.5 L528.2,142.9 L528,143.9 C527.8,144.8 527.6,145.7 527.5,146.7 L527.2,147.7 Z M874.5,141.7 L874.3,140.7 C874.1,139.8 873.9,138.9 873.7,138 L873.4,137 L875.5,136.5 L875.8,137.5 C876,138.4 876.2,139.3 876.5,140.3 L876.7,141.3 L874.5,141.7 Z M529,139.4 L526.9,138.9 L527.1,137.9 C527.3,137 527.6,136.1 527.8,135.1 L528.1,134.1 L530.2,134.6 L529.9,135.6 C529.7,136.5 529.4,137.4 529.2,138.3 L529,139.4 Z M872.4,133.6 L872.1,132.6 C871.8,131.7 871.6,130.8 871.3,129.9 L871,128.9 L873,128.3 L873.3,129.3 C873.6,130.2 873.8,131.1 874.1,132 L874.4,133 L872.4,133.6 Z M531.1,131.2 L529.1,130.6 L529.4,129.6 C529.7,128.7 529.9,127.8 530.2,126.9 L530.5,125.9 L532.5,126.5 L532.2,127.5 C531.9,128.4 531.7,129.3 531.4,130.2 L531.1,131.2 Z M870,125.5 L869.7,124.5 C869.4,123.6 869.1,122.7 868.8,121.8 L868.5,120.8 L870.5,120.1 L870.8,121.1 C871.1,122 871.4,122.9 871.7,123.8 L872,124.8 L870,125.5 Z M533.6,123.2 L531.6,122.5 L531.9,121.5 C532.2,120.6 532.5,119.7 532.9,118.8 L533.3,117.8 L535.3,118.5 L534.9,119.5 C534.6,120.4 534.3,121.3 534,122.2 L533.6,123.2 Z M867.3,117.5 L866.9,116.5 C866.6,115.6 866.2,114.8 865.9,113.9 L865.5,112.9 L867.5,112.1 L867.9,113.1 C868.3,114 868.6,114.9 868.9,115.7 L869.3,116.7 L867.3,117.5 Z M536.5,115.2 L534.5,114.4 L534.9,113.4 C535.3,112.5 535.6,111.6 536,110.8 L536.4,109.8 L538.4,110.6 L538,111.6 C537.6,112.5 537.3,113.3 536.9,114.2 L536.5,115.2 Z M864.1,109.7 L863.7,108.7 C863.3,107.8 862.9,107 862.6,106.1 L862.2,105.1 L864.1,104.2 L864.5,105.2 C864.9,106.1 865.3,106.9 865.7,107.8 L866.1,108.8 L864.1,109.7 Z M539.8,107.4 L537.9,106.5 L538.3,105.5 C538.7,104.6 539.1,103.8 539.5,102.9 L540,101.9 L541.9,102.8 L541.4,103.8 C541,104.6 540.6,105.5 540.2,106.4 L539.8,107.4 Z M860.6,102.1 L860.1,101.1 C859.7,100.3 859.3,99.4 858.8,98.6 L858.3,97.7 L860.2,96.7 L860.7,97.6 C861.1,98.4 861.6,99.3 862,100.1 L862.5,101.1 L860.6,102.1 Z M543.4,99.8 L541.5,98.8 L542,97.9 C542.4,97.1 542.9,96.2 543.3,95.4 L543.8,94.5 L545.7,95.5 L545.2,96.4 C544.8,97.2 544.3,98.1 543.9,98.9 L543.4,99.8 Z M856.7,94.6 L856.2,93.7 C855.7,92.9 855.3,92.1 854.8,91.3 L854.3,90.4 L856.1,89.3 L856.6,90.2 C857.1,91 857.5,91.8 858,92.7 L858.5,93.6 L856.7,94.6 Z M547.4,92.4 L545.6,91.3 L546.1,90.4 C546.6,89.6 547.1,88.8 547.5,87.9 L548,87 L549.8,88.1 L549.3,89 C548.8,89.8 548.3,90.6 547.9,91.4 L547.4,92.4 Z M852.5,87.4 L851.9,86.5 C851.4,85.7 850.9,84.9 850.4,84.1 L849.8,83.2 L851.6,82 L852.2,82.9 C852.7,83.7 853.2,84.5 853.7,85.3 L854.3,86.2 L852.5,87.4 Z M551.8,85.2 L550,84 L550.6,83.1 C551.1,82.3 551.6,81.5 552.2,80.7 L552.8,79.8 L554.6,81 L554,81.9 C553.5,82.7 553,83.5 552.5,84.3 L551.8,85.2 Z M847.9,80.3 L847.3,79.4 C846.8,78.6 846.2,77.9 845.7,77.1 L845.1,76.2 L846.8,75 L847.4,75.9 C848,76.7 848.5,77.4 849,78.2 L849.6,79.1 L847.9,80.3 Z M556.5,78.1 L554.8,76.9 L555.4,76 C556,75.2 556.5,74.5 557.1,73.7 L557.7,72.8 L559.4,74.1 L558.8,75 C558.2,75.8 557.7,76.5 557.1,77.3 L556.5,78.1 Z M843,73.5 L842.4,72.7 C841.8,72 841.3,71.2 840.7,70.5 L840,69.7 L841.7,68.4 L842.4,69.2 C843,69.9 843.6,70.7 844.1,71.4 L844.7,72.2 L843,73.5 Z M561.5,71.4 L559.8,70.1 L560.5,69.3 C561.1,68.6 561.7,67.8 562.3,67.1 L563,66.3 L564.6,67.6 L563.9,68.4 C563.3,69.1 562.7,69.9 562.1,70.6 L561.5,71.4 Z M837.8,66.8 L837.1,66 C836.5,65.3 835.9,64.6 835.3,63.9 L834.6,63.1 L836.2,61.7 L836.9,62.5 C837.5,63.2 838.1,63.9 838.7,64.7 L839.4,65.5 L837.8,66.8 Z M566.8,64.8 L565.2,63.4 L565.9,62.6 C566.5,61.9 567.1,61.2 567.8,60.5 L568.5,59.7 L570.1,61.1 L569.4,61.9 C568.8,62.6 568.2,63.3 567.5,64 L566.8,64.8 Z M832.2,60.5 L831.5,59.7 C830.9,59 830.2,58.3 829.6,57.7 L828.9,56.9 L830.4,55.4 L831.1,56.2 C831.8,56.9 832.4,57.6 833,58.3 L833.7,59.1 L832.2,60.5 Z M572.5,58.5 L571,57 L571.7,56.2 C572.4,55.5 573,54.8 573.7,54.2 L574.4,53.4 L575.9,54.9 L575.2,55.7 C574.5,56.4 573.9,57 573.2,57.7 L572.5,58.5 Z M826.4,54.4 L825.6,53.7 C824.9,53 824.3,52.4 823.6,51.7 L822.8,51 L824.3,49.5 L825.1,50.2 C825.8,50.9 826.5,51.5 827.1,52.2 L827.9,52.9 L826.4,54.4 Z M578.4,52.5 L576.9,51 L577.7,50.3 C578.4,49.6 579.1,49 579.8,48.4 L580.6,47.7 L582,49.3 L581.2,50 C580.5,50.6 579.8,51.3 579.2,51.9 L578.4,52.5 Z M820.3,48.6 L819.5,47.9 C818.8,47.3 818.1,46.7 817.4,46 L816.6,45.3 L818,43.7 L818.8,44.4 C819.5,45 820.2,45.6 820.9,46.3 L821.7,47 L820.3,48.6 Z M584.6,46.8 L583.2,45.2 L584,44.5 C584.7,43.9 585.4,43.3 586.2,42.7 L587,42 L588.4,43.6 L587.6,44.3 C586.9,44.9 586.2,45.5 585.5,46.1 L584.6,46.8 Z M813.9,43.1 L813.1,42.4 C812.4,41.8 811.6,41.2 810.9,40.6 L810.1,39.9 L811.4,38.2 L812.2,38.9 C812.9,39.5 813.7,40.1 814.4,40.7 L815.2,41.4 L813.9,43.1 Z M591,41.4 L589.7,39.7 L590.5,39 C591.2,38.4 592,37.8 592.7,37.3 L593.5,36.7 L594.8,38.4 L594,39 C593.3,39.6 592.5,40.1 591.8,40.7 L591,41.4 Z M807.2,37.9 L806.3,37.3 C805.5,36.7 804.8,36.2 804,35.6 L803.1,35 L804.3,33.3 L805.2,33.9 C806,34.5 806.7,35 807.5,35.6 L808.4,36.2 L807.2,37.9 Z M597.8,36.3 L596.6,34.6 L597.5,34 C598.3,33.5 599,32.9 599.8,32.4 L600.7,31.8 L601.9,33.6 L601,34.2 C600.2,34.7 599.5,35.3 598.7,35.8 L597.8,36.3 Z M800.4,33 L799.5,32.4 C798.7,31.9 797.9,31.4 797.1,30.9 L796.2,30.3 L797.3,28.5 L798.2,29.1 C799,29.6 799.8,30.1 800.6,30.7 L801.5,31.3 L800.4,33 Z M604.7,31.6 L603.5,29.8 L604.4,29.2 C605.2,28.7 606,28.2 606.8,27.7 L607.7,27.1 L608.8,28.9 L607.9,29.5 C607.1,30 606.3,30.5 605.5,31 L604.7,31.6 Z M793.3,28.5 L792.4,28 C791.6,27.5 790.8,27 790,26.6 L789.1,26.1 L790.2,24.3 L791.1,24.8 C791.9,25.3 792.7,25.8 793.6,26.2 L794.5,26.7 L793.3,28.5 Z M611.8,27.1 L610.7,25.3 L611.6,24.8 C612.4,24.3 613.2,23.9 614.1,23.4 L615,22.9 L616,24.8 L615.1,25.3 C614.3,25.8 613.5,26.2 612.7,26.7 L611.8,27.1 Z M785.9,24.3 L785,23.8 C784.2,23.4 783.3,22.9 782.5,22.5 L781.6,22 L782.6,20.1 L783.5,20.6 C784.3,21 785.2,21.5 786,21.9 L786.9,22.4 L785.9,24.3 Z M619.2,23 L618.2,21.1 L619.1,20.6 C619.9,20.2 620.8,19.7 621.6,19.3 L622.6,18.8 L623.5,20.7 L622.5,21.2 C621.7,21.6 620.8,22 620,22.5 L619.2,23 Z M778.4,20.4 L777.4,19.9 C776.6,19.5 775.7,19.1 774.8,18.7 L773.8,18.3 L774.7,16.4 L775.7,16.8 C776.6,17.2 777.4,17.6 778.3,18 L779.3,18.5 L778.4,20.4 Z M626.7,19.3 L625.8,17.4 L626.8,17 C627.7,16.6 628.5,16.2 629.4,15.8 L630.4,15.4 L631.3,17.3 L630.3,17.7 C629.4,18.1 628.6,18.5 627.7,18.8 L626.7,19.3 Z M770.7,16.9 L769.7,16.5 C768.8,16.1 768,15.8 767.1,15.4 L766.1,15 L766.9,13 L767.9,13.4 C768.8,13.8 769.7,14.1 770.5,14.5 L771.5,14.9 L770.7,16.9 Z M634.4,16 L633.6,14 L634.6,13.6 C635.5,13.2 636.4,12.9 637.2,12.6 L638.2,12.2 L639,14.2 L638,14.6 C637.1,14.9 636.3,15.3 635.4,15.6 L634.4,16 Z M762.9,13.8 L761.9,13.4 C761,13.1 760.1,12.8 759.2,12.5 L758.2,12.2 L758.9,10.2 L759.9,10.5 C760.8,10.8 761.7,11.1 762.6,11.5 L763.6,11.9 L762.9,13.8 Z M642.3,13 L641.6,11 L642.6,10.7 C643.5,10.4 644.4,10.1 645.3,9.8 L646.3,9.5 L647,11.5 L646,11.8 C645.1,12.1 644.2,12.4 643.3,12.7 L642.3,13 Z M754.9,11 L753.9,10.7 C753,10.4 752.1,10.2 751.2,9.9 L750.2,9.6 L750.8,7.6 L751.8,7.9 C752.7,8.2 753.6,8.4 754.5,8.7 L755.5,9 L754.9,11 Z M650.3,10.3 L649.7,8.3 L650.7,8 C651.6,7.7 652.5,7.5 653.4,7.2 L654.4,6.9 L655,8.9 L654,9.2 C653.1,9.5 652.2,9.7 651.3,10 L650.3,10.3 Z M746.8,8.7 L745.8,8.4 C744.9,8.2 744,7.9 743.1,7.7 L742.1,7.5 L742.6,5.4 L743.6,5.6 C744.5,5.8 745.4,6.1 746.4,6.3 L747.4,6.6 L746.8,8.7 Z M658.4,8.1 L657.9,6 L658.9,5.7 C659.8,5.5 660.7,5.3 661.7,5.1 L662.7,4.9 L663.2,7 L662.2,7.2 C661.3,7.4 660.4,7.6 659.5,7.8 L658.4,8.1 Z M738.6,6.7 L737.6,6.5 C736.7,6.3 735.8,6.1 734.8,6 L733.8,5.8 L734.2,3.7 L735.2,3.9 C736.1,4.1 737.1,4.3 738,4.5 L739,4.7 L738.6,6.7 Z M666.7,6.3 L666.3,4.2 L667.3,4 C668.2,3.8 669.2,3.6 670.1,3.5 L671.1,3.3 L671.5,5.4 L670.5,5.6 C669.6,5.8 668.7,5.9 667.7,6.1 L666.7,6.3 Z M730.3,5.2 L729.3,5 C728.4,4.9 727.4,4.7 726.5,4.6 L725.4,4.5 L725.7,2.4 L726.8,2.5 C727.7,2.6 728.7,2.8 729.6,2.9 L730.7,3.1 L730.3,5.2 Z M675,4.8 L674.7,2.7 L675.8,2.5 C676.7,2.4 677.7,2.2 678.6,2.1 L679.7,2 L680,4.1 L678.9,4.2 C678,4.3 677,4.4 676.1,4.6 L675,4.8 Z M721.9,4 L720.8,3.9 C719.9,3.8 718.9,3.7 718,3.6 L716.9,3.5 L717.1,1.4 L718.2,1.5 C719.1,1.6 720.1,1.7 721,1.8 L722.1,1.9 L721.9,4 Z M683.3,3.8 L683.1,1.7 L684.2,1.6 C685.1,1.5 686.1,1.4 687,1.4 L688.1,1.3 L688.3,3.4 L687.2,3.5 C686.3,3.6 685.3,3.7 684.4,3.7 L683.3,3.8 Z M713.5,3.2 L712.4,3.1 C711.5,3 710.5,3 709.6,2.9 L708.5,2.9 L708.6,0.8 L709.7,0.8 C710.6,0.8 711.6,0.9 712.5,1 L713.6,1.1 L713.5,3.2 Z M691.7,3.1 L691.6,1 L692.7,0.9 C693.6,0.9 694.6,0.8 695.5,0.8 L696.6,0.8 L696.7,2.9 L695.6,2.9 C694.7,2.9 693.7,3 692.8,3 L691.7,3.1 Z M705.1,2.9 L704,2.9 C703.1,2.9 702.3,2.9 701.4,2.9 L700.1,2.9 L700.1,0.8 L701.4,0.8 C702.3,0.8 703.2,0.8 704,0.8 L705.1,0.8 L705.1,2.9 Z" id="Shape" fill="#38B800" fill-rule="nonzero"></path>
            <path d="M694.1,451.4 L367.6,433.8 C361.2,433.5 356.2,428.2 356.2,421.8 L356.2,139.8 C356.2,133.9 360.5,128.9 366.2,128 L695.8,73.7 C705.3,72.1 714,79.5 714,89.1 L714,432.5 C714.1,443.4 705,452 694.1,451.4 Z" id="Shape" fill="#D5E1EF" fill-rule="nonzero"></path>
            <g id="Group" transform="translate(346.000000, 62.000000)" fill-rule="nonzero">
                <path d="M345.4,379.8 L11.6,361.8 C5.2,361.5 0.2,356.2 0.2,349.8 L0.2,67.8 C0.2,61.9 4.5,56.9 10.2,56 L344,1 C351.3,-0.2 358,5.4 358,12.8 L358,367.8 C358.1,374.7 352.3,380.2 345.4,379.8 Z" id="Shape" fill="#FFFFFF"></path>
                <path d="M346.1,0.9 L346.1,2.3 C351.9,2.3 356.7,7 356.7,12.9 L356.7,367.9 C356.7,373.7 352,378.5 346.1,378.5 C345.9,378.5 345.7,378.5 345.5,378.5 L11.7,360.5 C6.1,360.2 1.7,355.6 1.7,349.9 L1.7,67.9 C1.7,62.7 5.4,58.3 10.6,57.5 L344.4,2.5 C345,2.4 345.6,2.4 346.1,2.4 L346.1,0.9 L346.1,0.9 Z M346.1,0.9 C345.5,0.9 344.8,1 344.1,1.1 L10.3,56.1 C4.5,57.1 0.3,62.1 0.3,67.9 L0.3,349.9 C0.3,356.3 5.3,361.5 11.7,361.9 L345.5,379.9 C345.7,379.9 345.9,379.9 346.2,379.9 C352.8,379.9 358.2,374.6 358.2,367.9 L358.2,12.9 C358.1,6.1 352.6,0.9 346.1,0.9 L346.1,0.9 Z" id="Shape" fill="#0789EE"></path>
            </g>
            <path d="M615.9,281.6 L530.5,280 C528,280 525.9,277.9 525.9,275.4 L525.9,196.8 C525.9,195.6 526.8,194.6 528,194.5 L615.6,186.3 C618.3,186 620.7,188.2 620.7,190.9 L620.7,276.9 C620.6,279.5 618.5,281.6 615.9,281.6 Z" id="Shape" fill="#D5E1EF" fill-rule="nonzero"></path>
            <g id="Group" transform="translate(513.000000, 173.000000)" fill-rule="nonzero">
                <path d="M91.9,97 L1.3,95.3 L1.3,13.7 C1.3,11.6 2.9,9.9 4.9,9.7 L91.6,1.6 C93.9,1.4 96,3.2 96,5.6 L96,93 C96,95.2 94.1,97 91.9,97 Z" id="Shape" fill="#FFFFFF"></path>
                <g id="Shape" fill="#0789EE">
                    <polygon points="3.7 96.4 0.2 96.4 0.2 92.8 2.3 92.8 2.3 94.3 3.8 94.3"></polygon>
                    <path d="M92.7,98.1 L92,96.1 L93,95.7 C93.7,95.5 94.2,95 94.6,94.4 L95.1,93.5 L97,94.5 L96.5,95.4 C95.9,96.5 95,97.3 93.8,97.7 L92.7,98.1 Z M88.8,98 L83.8,97.9 L83.8,95.8 L88.8,95.9 L88.8,98 Z M80.3,97.8 L75.3,97.7 L75.3,95.6 L80.3,95.7 L80.3,97.8 Z M71.8,97.7 L66.8,97.6 L66.8,95.5 L71.8,95.6 L71.8,97.7 Z M63.3,97.5 L58.3,97.4 L58.3,95.3 L63.3,95.4 L63.3,97.5 Z M54.8,97.4 L49.8,97.3 L49.8,95.2 L54.8,95.3 L54.8,97.4 Z M46.3,97.2 L41.3,97.1 L41.3,95 L46.3,95.1 L46.3,97.2 Z M37.8,97.1 L32.8,97 L32.8,94.9 L37.8,95 L37.8,97.1 Z M29.3,96.9 L24.3,96.8 L24.3,94.7 L29.3,94.8 L29.3,96.9 Z M20.8,96.7 L15.8,96.6 L15.8,94.5 L20.8,94.6 L20.8,96.7 Z M12.3,96.6 L7.3,96.5 L7.3,94.4 L12.3,94.5 L12.3,96.6 Z M97,90.4 L94.9,90.4 L94.9,85.4 L97,85.4 L97,90.4 Z M2.3,89.3 L0.2,89.3 L0.2,84.3 L2.3,84.3 L2.3,89.3 Z M97,81.9 L94.9,81.9 L94.9,76.9 L97,76.9 L97,81.9 Z M2.3,80.8 L0.2,80.8 L0.2,75.8 L2.3,75.8 L2.3,80.8 Z M97,73.4 L94.9,73.4 L94.9,68.4 L97,68.4 L97,73.4 Z M2.3,72.3 L0.2,72.3 L0.2,67.3 L2.3,67.3 L2.3,72.3 Z M97,64.9 L94.9,64.9 L94.9,59.9 L97,59.9 L97,64.9 Z M2.3,63.8 L0.2,63.8 L0.2,58.8 L2.3,58.8 L2.3,63.8 Z M97,56.4 L94.9,56.4 L94.9,51.4 L97,51.4 L97,56.4 Z M2.3,55.3 L0.2,55.3 L0.2,50.3 L2.3,50.3 L2.3,55.3 Z M97,47.9 L94.9,47.9 L94.9,42.9 L97,42.9 L97,47.9 Z M2.3,46.8 L0.2,46.8 L0.2,41.8 L2.3,41.8 L2.3,46.8 Z M97,39.4 L94.9,39.4 L94.9,34.4 L97,34.4 L97,39.4 Z M2.3,38.3 L0.2,38.3 L0.2,33.3 L2.3,33.3 L2.3,38.3 Z M97,30.9 L94.9,30.9 L94.9,25.9 L97,25.9 L97,30.9 Z M2.3,29.8 L0.2,29.8 L0.2,24.8 L2.3,24.8 L2.3,29.8 Z M97,22.4 L94.9,22.4 L94.9,17.4 L97,17.4 L97,22.4 Z M2.3,21.3 L0.2,21.3 L0.2,16.3 L2.3,16.3 L2.3,21.3 Z M97,13.9 L94.9,13.9 L94.9,8.9 L97,8.9 L97,13.9 Z M2.2,13.3 L0.3,12.3 L0.8,11.4 C1.4,10.3 2.3,9.5 3.5,9.1 L4.5,8.7 L5.2,10.7 L4.2,11.1 C3.5,11.3 3,11.8 2.7,12.4 L2.2,13.3 Z M8.5,10.5 L8.3,8.4 L13.2,7.9 L13.4,10 L8.5,10.5 Z M17,9.7 L16.8,7.6 L21.7,7.1 L21.9,9.2 L17,9.7 Z M25.5,8.9 L25.3,6.8 L30.2,6.3 L30.4,8.4 L25.5,8.9 Z M33.9,8.1 L33.7,6 L38.6,5.5 L38.8,7.6 L33.9,8.1 Z M42.4,7.3 L42.2,5.2 L47.1,4.7 L47.3,6.8 L42.4,7.3 Z M50.9,6.5 L50.7,4.4 L55.6,3.9 L55.8,6 L50.9,6.5 Z M59.3,5.7 L59.1,3.6 L64,3.1 L64.2,5.2 L59.3,5.7 Z M95.1,5.7 L94.8,4.7 C94.6,4 94.1,3.5 93.5,3.1 L92.6,2.5 L93.7,0.7 L94.6,1.3 C95.6,1.9 96.4,2.9 96.8,4 L97.1,5 L95.1,5.7 Z M67.8,4.9 L67.6,2.8 L72.5,2.3 L72.7,4.4 L67.8,4.9 Z M76.3,4.1 L76.1,2 L81,1.5 L81.2,3.6 L76.3,4.1 Z M84.7,3.4 L84.5,1.3 L89.4,0.8 L89.6,2.9 L84.7,3.4 Z"></path>
                </g>
            </g>
            <g id="Group" transform="translate(346.000000, 62.000000)" fill-rule="nonzero">
                <path d="M358.1,33.2 L0.3,77.4 L0.3,67.8 C0.3,61.9 4.6,56.9 10.3,56 L344.1,1 C351.4,-0.2 358.1,5.4 358.1,12.8 L358.1,33.2 Z" id="Shape" fill="#EEF5FF"></path>
                <path d="M346.1,2.3 C351.9,2.3 356.7,7 356.7,12.9 L356.7,32 L1.7,75.9 L1.7,67.9 C1.7,62.7 5.4,58.3 10.6,57.5 L344.4,2.5 C344.9,2.3 345.5,2.3 346.1,2.3 L346.1,2.3 Z M346.1,0.9 C345.4,0.9 344.8,1 344.1,1.1 L10.3,56.1 C4.5,57.1 0.3,62.1 0.3,67.9 L0.3,77.5 L358.1,33.3 L358.1,12.9 C358.1,6.1 352.6,0.9 346.1,0.9 L346.1,0.9 Z" id="Shape" fill="#0789EE"></path>
            </g>
            <path d="M690.7,77 L677.5,79.2 C677,79.3 676.4,78.9 676.3,78.4 L676.3,78.4 C676.2,77.9 676.6,77.3 677.1,77.2 L690.3,75 C690.8,74.9 691.4,75.3 691.5,75.8 L691.5,75.8 C691.6,76.4 691.3,76.9 690.7,77 Z" id="Shape" fill="#0789EE" fill-rule="nonzero"></path>
            <path d="M690.7,81.6 L677.5,83.8 C677,83.9 676.4,83.5 676.3,83 L676.3,83 C676.2,82.5 676.6,81.9 677.1,81.8 L690.3,79.6 C690.8,79.5 691.4,79.9 691.5,80.4 L691.5,80.4 C691.6,81 691.3,81.5 690.7,81.6 Z" id="Shape" fill="#0789EE" fill-rule="nonzero"></path>
            <path d="M690.4,86.2 L677.2,88.4 C676.7,88.5 676.1,88.1 676,87.6 L676,87.6 C675.9,87.1 676.3,86.5 676.8,86.4 L690,84.2 C690.5,84.1 691.1,84.5 691.2,85 L691.2,85 C691.3,85.6 690.9,86.1 690.4,86.2 Z" id="Shape" fill="#0789EE" fill-rule="nonzero"></path>
            <path d="M822.5,419.7 C822.5,431.5 784.7,438 800.2,455.3 C827.8,486.1 798.9,497.1 796.4,497.1 C793.3,497.1 778,462.4 778,419.7 C778,377 793,342.3 796.4,342.3 C799,342.3 819.7,361.5 799.8,383.7 C792.1,392.4 822.5,405.5 822.5,419.7 Z" id="Shape" fill="#8CC63F" fill-rule="nonzero"></path>
            <ellipse id="Oval" fill="#C1D1E5" fill-rule="nonzero" cx="796.4" cy="547.8" rx="63.2" ry="5.7"></ellipse>
            <path d="M821.1,547.8 L771.7,547.8 C768.8,547.8 766.3,545.6 766,542.6 L760,482.1 C759.7,478.7 762.3,475.8 765.7,475.8 L827.2,475.8 C830.6,475.8 833.2,478.7 832.9,482.1 L826.9,542.6 C826.6,545.5 824.1,547.8 821.1,547.8 Z" id="Shape" fill="#007C3E" fill-rule="nonzero"></path>
            <path d="M827.2,475.8 L796.5,475.8 L796.5,547.8 L821.2,547.8 C824.1,547.8 826.6,545.6 826.9,542.6 L832.9,482.1 C833.2,478.7 830.6,475.8 827.2,475.8 Z" id="Shape" fill="#39B54A" fill-rule="nonzero"></path>
            <path d="M715,406.6 L671.3,405 C669.1,404.9 667.4,403.2 667.4,401 L667.4,334 L715,333 C717.2,333 719.1,334.8 719.1,337 L719.1,402.6 C719.2,404.9 717.3,406.7 715,406.6 Z" id="Shape" fill="#D5E1EF" fill-rule="nonzero"></path>
            <g id="Group" transform="translate(656.000000, 321.000000)" fill-rule="nonzero">
                <path d="M49,75.6 L5.3,74 C3.1,73.9 1.4,72.2 1.4,70 L1.4,6.9 C1.4,4.7 3.1,2.9 5.3,2.9 L49,2 C51.2,2 53.1,3.8 53.1,6 L53.1,71.6 C53.2,73.9 51.3,75.7 49,75.6 Z" id="Shape" fill="#FFFFFF"></path>
                <path d="M50.1,76.7 L49,76.7 L49,75.6 L49,76.7 L45,76.6 L45.1,74.5 L50.1,74.7 L50.1,76.7 Z M41.4,76.4 L36.4,76.2 L36.5,74.1 L41.5,74.3 L41.4,76.4 Z M32.8,76.1 L27.8,75.9 L27.9,73.8 L32.9,74 L32.8,76.1 Z M24.2,75.8 L19.2,75.6 L19.3,73.5 L24.3,73.7 L24.2,75.8 Z M15.6,75.5 L10.6,75.3 L10.7,73.2 L15.7,73.4 L15.6,75.5 Z M7,75.2 L5.3,75.1 C4.3,75.1 3.4,74.8 2.6,74.2 L1.7,73.6 L2.9,71.8 L3.8,72.4 C4.3,72.7 4.8,72.9 5.3,72.9 L7,73 L7,75.2 Z M54,73.5 L51.9,73.2 L52.1,72.2 C52.1,72 52.1,71.9 52.1,71.7 L52.1,68.4 L54.2,68.4 L54.2,71.7 C54.2,72 54.2,72.2 54.1,72.5 L54,73.5 Z M2.6,69.3 L0.5,69.3 L0.5,64.3 L2.6,64.3 L2.6,69.3 Z M54.2,64.7 L52.1,64.7 L52.1,59.7 L54.2,59.7 L54.2,64.7 Z M2.6,60.6 L0.5,60.6 L0.5,55.6 L2.6,55.6 L2.6,60.6 Z M54.2,56.1 L52.1,56.1 L52.1,51.1 L54.2,51.1 L54.2,56.1 Z M2.6,52 L0.5,52 L0.5,47 L2.6,47 L2.6,52 Z M54.2,47.5 L52.1,47.5 L52.1,42.5 L54.2,42.5 L54.2,47.5 Z M2.6,43.4 L0.5,43.4 L0.5,38.4 L2.6,38.4 L2.6,43.4 Z M54.2,38.9 L52.1,38.9 L52.1,33.9 L54.2,33.9 L54.2,38.9 Z M2.6,34.8 L0.5,34.8 L0.5,29.8 L2.6,29.8 L2.6,34.8 Z M54.2,30.3 L52.1,30.3 L52.1,25.3 L54.2,25.3 L54.2,30.3 Z M2.6,26.2 L0.5,26.2 L0.5,21.2 L2.6,21.2 L2.6,26.2 Z M54.2,21.7 L52.1,21.7 L52.1,16.7 L54.2,16.7 L54.2,21.7 Z M2.6,17.6 L0.5,17.6 L0.5,12.6 L2.6,12.6 L2.6,17.6 Z M54.2,13 L52.1,13 L52.1,8 L54.2,8 L54.2,13 Z M2.6,9 L0.5,9 L0.5,7 C0.5,6.2 0.7,5.4 1.1,4.7 L1.6,3.8 L3.5,4.8 L3,5.7 C2.8,6.1 2.7,6.6 2.7,7 L2.7,9 L2.6,9 Z M52.1,5.1 L51.4,4.3 C51,3.7 50.3,3.4 49.6,3.2 L48.6,3 L49,0.9 L50,1.1 C51.2,1.3 52.3,2 53,2.9 L53.7,3.7 L52.1,5.1 Z M5.8,4 L5.8,1.9 L10.8,1.8 L10.8,3.9 L5.8,4 Z M14.4,3.8 L14.4,1.7 L19.4,1.6 L19.4,3.7 L14.4,3.8 Z M23,3.6 L23,1.5 L28,1.4 L28,3.5 L23,3.6 Z M31.7,3.5 L31.7,1.4 L36.7,1.3 L36.7,3.4 L31.7,3.5 Z M40.3,3.3 L40.3,1.2 L45.3,1.1 L45.3,3.2 L40.3,3.3 Z" id="Shape" fill="#0789EE"></path>
            </g>
            <circle id="Oval" fill="#0789EE" fill-rule="nonzero" cx="587.3" cy="337.3" r="7.1"></circle>
            <path d="M654.9,360.9 L653.8,360.9 C652.8,360.9 651.9,360.9 650.9,360.8 L649.8,360.8 L649.9,358.7 L651,358.7 C651.9,358.7 652.9,358.8 653.8,358.8 L654.9,358.8 L654.9,360.9 Z M646.3,360.6 L645.2,360.5 C644.2,360.4 643.3,360.3 642.4,360.3 L641.3,360.2 L641.5,358.1 L642.6,358.2 C643.5,358.3 644.5,358.4 645.4,358.4 L646.5,358.5 L646.3,360.6 Z M637.8,359.7 L636.7,359.6 C635.7,359.5 634.8,359.3 633.9,359.2 L632.8,359 L633.1,356.9 L634.1,357.1 C635,357.2 635.9,357.4 636.9,357.5 L638,357.6 L637.8,359.7 Z M629.3,358.4 L628.3,358.2 C627.4,358 626.4,357.8 625.5,357.6 L624.5,357.4 L625,355.3 L626,355.5 C626.9,355.7 627.8,355.9 628.7,356.1 L629.7,356.3 L629.3,358.4 Z M621,356.4 L620,356.1 C619.1,355.8 618.2,355.6 617.3,355.3 L616.3,355 L616.9,353 L617.9,353.3 C618.8,353.6 619.7,353.9 620.6,354.1 L621.6,354.4 L621,356.4 Z M612.8,353.7 L611.8,353.3 C610.9,353 610,352.6 609.1,352.2 L608.1,351.8 L608.9,349.8 L609.9,350.2 C610.8,350.6 611.6,350.9 612.5,351.2 L613.5,351.6 L612.8,353.7 Z M604.9,350.4 L603.9,349.9 C603,349.5 602.2,349 601.4,348.6 L600.5,348.1 L601.5,346.2 L602.4,346.7 C603.2,347.1 604,347.6 604.9,348 L605.8,348.5 L604.9,350.4 Z M597.4,346.2 L596.5,345.6 C595.7,345.1 594.9,344.5 594.1,344 L593.2,343.4 L594.4,341.7 L595.3,342.3 C596.1,342.8 596.8,343.3 597.6,343.8 L598.5,344.4 L597.4,346.2 Z M590.4,341.3 L589.6,340.6 C588.8,340 588.1,339.4 587.4,338.8 L586.6,338.1 L588,336.5 L588.8,337.2 C589.5,337.8 590.2,338.4 590.9,339 L591.7,339.7 L590.4,341.3 Z M583.9,335.6 L583.2,334.8 C582.5,334.1 581.9,333.4 581.2,332.7 L580.5,331.9 L582.1,330.5 L582.8,331.3 C583.4,332 584.1,332.7 584.7,333.3 L585.4,334.1 L583.9,335.6 Z M578.1,329.2 L577.4,328.4 C576.8,327.6 576.2,326.9 575.7,326.1 L575.1,325.2 L576.8,324 L577.4,324.9 C577.9,325.6 578.5,326.4 579.1,327.1 L579.8,327.9 L578.1,329.2 Z M573.1,322.2 L572.5,321.3 C572,320.5 571.5,319.7 571,318.8 L570.5,317.9 L572.3,316.9 L572.8,317.8 C573.3,318.6 573.7,319.4 574.2,320.2 L574.8,321.1 L573.1,322.2 Z M568.9,314.7 L568.4,313.7 C568,312.8 567.6,312 567.2,311.1 L566.8,310.1 L568.7,309.2 L569.1,310.2 C569.5,311 569.9,311.9 570.3,312.7 L570.8,313.7 L568.9,314.7 Z M565.5,306.8 L565.1,305.8 C564.8,304.9 564.5,304 564.2,303.1 L563.9,302.1 L565.9,301.4 L566.2,302.4 C566.5,303.3 566.8,304.2 567.1,305 L567.5,306 L565.5,306.8 Z M562.8,298.6 L562.5,297.6 C562.3,296.7 562,295.7 561.8,294.8 L561.6,293.8 L563.7,293.3 L563.9,294.3 C564.1,295.2 564.3,296.1 564.6,297 L564.9,298 L562.8,298.6 Z M560.9,290.2 L560.7,289.2 C560.5,288.2 560.4,287.3 560.2,286.4 L560,285.3 L562.1,285 L562.3,286.1 C562.4,287 562.6,287.9 562.8,288.9 L563,289.9 L560.9,290.2 Z M559.6,281.7 L559.5,280.6 C559.4,279.6 559.3,278.6 559.3,277.7 L559.2,276.6 L561.3,276.5 L561.4,277.6 C561.5,278.5 561.5,279.4 561.6,280.4 L561.7,281.5 L559.6,281.7 Z M561.2,273.1 L559.1,273.1 L559.1,272 C559.1,270.2 559.2,269.1 559.2,269.1 L559.3,268 L561.4,268.1 L561.3,269.2 C561.3,269.2 561.2,270.2 561.2,272 L561.2,273.1 Z" id="Shape" fill="#0789EE" fill-rule="nonzero"></path>
            <path d="M715.8,474.9 L712.5,474.7 L712.6,472.6 L715.9,472.8 L715.8,474.9 Z M709,474.5 L704,474.2 L704.1,472.1 L709.1,472.4 L709,474.5 Z M700.5,474 L695.5,473.7 L695.6,471.6 L700.6,471.9 L700.5,474 Z M691.8,473.5 L690.8,473.2 C689.8,472.9 688.9,472.5 688,472 L687.1,471.5 L688.1,469.6 L689,470.1 C689.8,470.5 690.5,470.9 691.4,471.1 L692.4,471.4 L691.8,473.5 Z M684.1,468.7 L683.5,467.8 C682.9,466.9 682.5,466 682.1,465.1 L681.7,464.1 L683.7,463.4 L684.1,464.4 C684.4,465.2 684.8,466 685.3,466.7 L685.9,467.6 L684.1,468.7 Z M683.4,460.2 L681.3,460.2 L681.3,455.2 L683.4,455.2 L683.4,460.2 Z M683.4,451.7 L681.3,451.7 L681.3,446.7 L683.4,446.7 L683.4,451.7 Z M683.4,443.2 L681.3,443.2 L681.3,438.2 L683.4,438.2 L683.4,443.2 Z M683.4,434.7 L681.3,434.7 L681.3,429.7 L683.4,429.7 L683.4,434.7 Z M683.4,426.2 L681.3,426.2 L681.3,421.2 L683.4,421.2 L683.4,426.2 Z M683.4,417.7 L681.3,417.7 L681.3,412.7 L683.4,412.7 L683.4,417.7 Z M683.4,409.2 L681.3,409.2 L681.3,404.2 L683.4,404.2 L683.4,409.2 Z M683.4,400.7 L681.3,400.7 L681.3,395.7 L683.4,395.7 L683.4,400.7 Z" id="Shape" fill="#0789EE" fill-rule="nonzero"></path>
            <circle id="Oval" fill="#0789EE" fill-rule="nonzero" cx="719.5" cy="473.7" r="7.1"></circle>
            <circle id="Oval" fill="#38B800" fill-rule="nonzero" cx="879.7" cy="188.8" r="7.1"></circle>
            <g id="Group" transform="translate(722.000000, 97.000000)" fill-rule="nonzero">
                <path d="M70.1,72.3 L12.5,72.1 C10.8,72.1 9.4,70.7 9.4,69 L9.4,14.7 L69.8,9 C71.6,8.8 73.2,10.3 73.2,12.1 L73.2,69.1 C73.2,70.9 71.8,72.3 70.1,72.3 Z" id="Shape" fill="#D5E1EF"></path>
                <g id="Shape">
                    <path d="M62.3,64.4 L4.7,64.2 C3,64.2 1.6,62.8 1.6,61.1 L1.6,9.6 C1.6,8 2.8,6.6 4.4,6.5 L62,1.1 C63.8,0.9 65.4,2.4 65.4,4.2 L65.4,61.2 C65.4,63 64,64.5 62.3,64.4 Z" fill="#FFFFFF"></path>
                    <path d="M62.3,65.5 L58.4,65.5 L58.4,63.4 L63.3,63.4 L63.4,65.5 L62.3,65.5 Z M54.9,65.5 L50,65.5 L50,63.4 L54.9,63.4 L54.9,65.5 Z M46.5,65.5 L41.6,65.5 L41.6,63.4 L46.5,63.4 L46.5,65.5 Z M38.1,65.4 L33.2,65.4 L33.2,63.3 L38.1,63.3 L38.1,65.4 Z M4.1,65.4 L3.1,65 C1.9,64.5 1,63.5 0.7,62.3 L0.4,61.3 L2.4,60.7 L2.7,61.7 C2.9,62.3 3.3,62.8 3.9,63 L4.9,63.4 L4.1,65.4 Z M29.7,65.4 L24.8,65.4 L24.8,63.3 L29.7,63.3 L29.7,65.4 Z M21.3,65.4 L16.4,65.4 L16.4,63.3 L21.3,63.3 L21.3,65.4 Z M12.9,65.4 L8,65.4 L8,63.3 L12.9,63.3 L12.9,65.4 Z M66.5,61.7 L64.4,61.7 L64.4,56.8 L66.5,56.8 L66.5,61.7 Z M2.6,57.5 L0.5,57.5 L0.5,52.6 L2.6,52.6 L2.6,57.5 Z M66.5,53.3 L64.4,53.3 L64.4,48.4 L66.5,48.4 L66.5,53.3 Z M2.6,49.1 L0.5,49.1 L0.5,44.2 L2.6,44.2 L2.6,49.1 Z M66.5,44.9 L64.4,44.9 L64.4,40 L66.5,40 L66.5,44.9 Z M2.6,40.7 L0.5,40.7 L0.5,35.8 L2.6,35.8 L2.6,40.7 Z M66.5,36.5 L64.4,36.5 L64.4,31.6 L66.5,31.6 L66.5,36.5 Z M2.6,32.3 L0.5,32.3 L0.5,27.4 L2.6,27.4 L2.6,32.3 Z M66.5,28.1 L64.4,28.1 L64.4,23.2 L66.5,23.2 L66.5,28.1 Z M2.6,23.9 L0.5,23.9 L0.5,19 L2.6,19 L2.6,23.9 Z M66.5,19.7 L64.4,19.7 L64.4,14.8 L66.5,14.8 L66.5,19.7 Z M2.6,15.5 L0.5,15.5 L0.5,10.6 L2.6,10.6 L2.6,15.5 Z M66.5,11.3 L64.4,11.3 L64.4,6.4 L66.5,6.4 L66.5,11.3 Z M2.9,8.2 L2,6.3 L3,5.9 C3.4,5.7 3.8,5.6 4.3,5.6 L7.1,5.3 L7.3,7.4 L4.5,7.7 C4.3,7.7 4.1,7.8 3.9,7.9 L2.9,8.2 Z M10.8,7 L10.6,4.9 L15.5,4.4 L15.7,6.5 L10.8,7 Z M19.2,6.2 L19,4.1 L23.9,3.6 L24.1,5.7 L19.2,6.2 Z M27.5,5.5 L27.3,3.4 L32.2,2.9 L32.4,5 L27.5,5.5 Z M35.9,4.7 L35.7,2.6 L40.6,2.1 L40.8,4.2 L35.9,4.7 Z M44.3,3.9 L44.1,1.8 L49,1.3 L49.2,3.4 L44.3,3.9 Z M64.5,3.6 L63.7,2.8 C63.3,2.4 62.7,2.1 62,2.2 L60.9,2.3 L60.6,0.2 L61.7,0.1 C63,-5.68434189e-14 64.2,0.4 65,1.3 L65.8,2.1 L64.5,3.6 Z M52.6,3.1 L52.4,1 L57.3,0.5 L57.5,2.6 L52.6,3.1 Z" fill="#0789EE"></path>
                </g>
                <polygon id="Shape" fill="#DCE7F7" points="33.9 30.4 10.1 30.9 10.1 17 33.9 15.4"></polygon>
                <polygon id="Shape" fill="#DCE7F7" points="33.9 54.6 10.1 54.6 10.1 36.5 33.9 36.2"></polygon>
            </g>
            <path d="M610.7,226.1 C609.6,226.1 609,226.1 609,226.1 L607.9,226 L608,223.9 L609.1,224 C609.1,224 610.1,224 611.9,224 L613,224 L613,226.1 L611.9,226.1 C611.4,226.1 611,226.1 610.7,226.1 Z M616.5,225.9 L616.3,223.8 L617.4,223.7 C618.3,223.6 619.2,223.5 620.2,223.4 L621.3,223.3 L621.6,225.4 L620.5,225.5 C619.5,225.6 618.5,225.7 617.6,225.8 L616.5,225.9 Z M625.1,224.8 L624.7,222.7 L625.7,222.5 C626.6,222.3 627.5,222.1 628.4,221.9 L629.4,221.7 L629.9,223.8 L628.9,224 C627.9,224.2 627,224.4 626.1,224.6 L625.1,224.8 Z M633.5,222.9 L632.9,220.9 L633.9,220.6 C634.8,220.3 635.7,220 636.5,219.7 L637.5,219.3 L638.2,221.3 L637.2,221.7 C636.3,222 635.4,222.3 634.5,222.6 L633.5,222.9 Z M641.6,219.8 L640.7,217.9 L641.7,217.4 C642.5,217 643.4,216.6 644.2,216.1 L645.1,215.6 L646.1,217.5 L645.2,218 C644.4,218.5 643.5,218.9 642.6,219.3 L641.6,219.8 Z M649.2,215.5 L647.9,213.8 L648.8,213.2 C649.5,212.7 650.3,212.1 651,211.5 L651.8,210.8 L653.2,212.4 L652.4,213.1 C651.7,213.7 650.9,214.3 650.1,214.9 L649.2,215.5 Z M655.7,209.8 L654.1,208.4 L654.8,207.6 C655.4,206.9 656,206.2 656.5,205.5 L657.1,204.6 L658.8,205.9 L658.2,206.8 C657.6,207.6 657,208.3 656.4,209.1 L655.7,209.8 Z M660.8,202.7 L658.9,201.7 L659.4,200.8 C659.8,200 660.2,199.2 660.5,198.3 L660.9,197.3 L662.9,198.1 L662.5,199.1 C662.1,200 661.7,200.9 661.3,201.7 L660.8,202.7 Z M664.1,194.6 L662,194.1 L662.3,193.1 C662.5,192.2 662.7,191.3 662.9,190.4 L663.1,189.4 L665.2,189.8 L665,190.8 C664.8,191.8 664.6,192.7 664.4,193.6 L664.1,194.6 Z M665.5,186.1 L663.4,186 L663.5,184.9 C663.6,184 663.6,183.1 663.6,182.1 L663.6,181 L665.7,181 L665.7,182.1 C665.7,183.1 665.7,184 665.6,185 L665.5,186.1 Z M665.8,177.6 L663.7,177.5 L663.8,176.4 C663.9,175.4 663.9,174.5 664,173.5 L664.1,172.4 L666.2,172.6 L666.1,173.7 C666,174.6 665.9,175.5 665.9,176.5 L665.8,177.6 Z M666.7,169.2 L664.6,168.8 L664.8,167.8 C665,166.8 665.2,165.9 665.4,165 L665.7,164 L667.8,164.5 L667.5,165.5 C667.3,166.4 667.1,167.3 666.9,168.2 L666.7,169.2 Z M668.7,161.2 L666.7,160.5 L667.1,159.5 C667.4,158.6 667.8,157.7 668.2,156.8 L668.6,155.8 L670.5,156.7 L670.1,157.7 C669.7,158.5 669.4,159.4 669,160.2 L668.7,161.2 Z M672.2,153.7 L670.4,152.5 L671,151.6 C671.5,150.8 672.1,150 672.7,149.2 L673.3,148.4 L675,149.7 L674.4,150.5 C673.8,151.2 673.3,152 672.8,152.7 L672.2,153.7 Z M677.3,147.2 L675.8,145.7 L676.6,145 C677.3,144.3 678,143.7 678.8,143.1 L679.6,142.4 L680.9,144.1 L680.1,144.8 C679.4,145.4 678.7,146 678,146.6 L677.3,147.2 Z M683.7,142.1 L682.6,140.3 L683.5,139.8 C684.3,139.3 685.2,138.8 686,138.4 L686.9,137.9 L687.9,139.8 L687,140.3 C686.2,140.7 685.4,141.2 684.6,141.6 L683.7,142.1 Z M691.1,138.4 L690.4,136.4 L691.4,136 C692.3,135.7 693.2,135.4 694.1,135.1 L695.1,134.8 L695.7,136.8 L694.7,137.1 C693.8,137.4 692.9,137.7 692.1,138 L691.1,138.4 Z M699.1,135.9 L698.6,133.8 L699.6,133.6 C700.5,133.4 701.5,133.2 702.4,133 L703.4,132.8 L703.8,134.9 L702.8,135.1 C701.9,135.3 701,135.5 700.1,135.7 L699.1,135.9 Z M707.3,134.4 L707,132.3 L708.1,132.2 C709,132.1 710,132 710.9,131.9 L712,131.8 L712.2,133.9 L711.1,134 C710.2,134.1 709.2,134.2 708.3,134.3 L707.3,134.4 Z M715.7,133.6 L715.6,131.5 L716.7,131.4 C717.6,131.4 718.6,131.3 719.6,131.3 L720.7,131.3 L720.8,133.4 L719.7,133.4 C718.7,133.4 717.8,133.5 716.9,133.5 L715.7,133.6 Z" id="Shape" fill="#0789EE" fill-rule="nonzero"></path>
            <polygon id="Shape" fill="#D5E1EF" fill-rule="nonzero" points="671.2 369.5 695.5 370.4 682.6 346"></polygon>
            <ellipse id="Oval" fill="#DCE7F7" fill-rule="nonzero" cx="769.6" cy="130.7" rx="6.8" ry="8.8"></ellipse>
            <polygon id="Shape" fill="#DCE7F7" fill-rule="nonzero" points="548.2 215.2 524.5 215.6 524.5 195.4 548.2 193.7"></polygon>
            <polygon id="Shape" fill="#DCE7F7" fill-rule="nonzero" points="578 215.2 554.3 215.1 554.3 193.2 578 191.6"></polygon>
            <polygon id="Shape" fill="#DCE7F7" fill-rule="nonzero" points="599.3 215.1 584 215.1 584 190.9 599.4 189.6"></polygon>
            <polygon id="Shape" fill="#DCE7F7" fill-rule="nonzero" points="548.2 248 524.5 248 524.5 221.2 548.2 220.9"></polygon>
            <polygon id="Shape" fill="#FDB7A2" fill-rule="nonzero" points="438.9 505.4 437.4 511.9 440.6 514.8 445.1 513.9 446.5 505"></polygon>
            <polygon id="Shape" fill="#FDB7A2" fill-rule="nonzero" points="485.9 516.8 484.4 523.3 487.7 526.2 492.1 525.2 493.6 516.4"></polygon>
            <path d="M409.3,237.1 L335.6,236.9 C333.4,236.9 331.6,235.1 331.6,232.9 L331.6,163.4 L408.9,156.1 C411.2,155.9 413.3,157.7 413.3,160.1 L413.3,233.1 C413.3,235.3 411.5,237.1 409.3,237.1 Z" id="Shape" fill="#D5E1EF" fill-rule="nonzero"></path>
            <ellipse id="Oval" fill="#FF6000" fill-rule="nonzero" transform="translate(357.132246, 128.218477) rotate(-0.983719) translate(-357.132246, -128.218477) " cx="357.132246" cy="128.218477" rx="2.10009953" ry="3.60017061"></ellipse>
            <ellipse id="Oval" fill="#FCEE21" fill-rule="nonzero" transform="translate(363.932563, 127.018447) rotate(-0.983719) translate(-363.932563, -127.018447) " cx="363.932563" cy="127.018447" rx="2.10009953" ry="3.60017061"></ellipse>
            <ellipse id="Oval" fill="#39B54A" fill-rule="nonzero" transform="translate(370.634124, 126.018714) rotate(-0.983719) translate(-370.634124, -126.018714) " cx="370.634124" cy="126.018714" rx="2.10009953" ry="3.60017061"></ellipse>
            <g id="Group" transform="translate(35.000000, 380.000000)" fill-rule="nonzero">
                <ellipse id="Oval" fill="#0071BC" transform="translate(50.237100, 76.576000) rotate(-33.345242) translate(-50.237100, -76.576000) " cx="50.2371" cy="76.576" rx="13.3004206" ry="3.2001012"></ellipse>
                <ellipse id="Oval" fill="#0789EE" transform="translate(24.479340, 66.606020) rotate(-23.042103) translate(-24.479340, -66.606020) " cx="24.47934" cy="66.60602" rx="4.6999107" ry="19.8996219"></ellipse>
                <ellipse id="Oval" fill="#0789EE" transform="translate(48.266030, 71.462050) rotate(-68.044321) translate(-48.266030, -71.462050) " cx="48.26603" cy="71.46205" rx="13.3003821" ry="3.20009193"></ellipse>
                <ellipse id="Oval" fill="#0063B5" cx="37.8" cy="46.1" rx="10.9" ry="45.6"></ellipse>
                <ellipse id="Oval" fill="#C1D1E5" cx="37.8" cy="121.6" rx="37.2" ry="3.4"></ellipse>
                <path d="M52.4,121.6 L23.3,121.6 C21.6,121.6 20.1,120.3 19.9,118.6 L16.3,82.9 C16.1,80.9 17.7,79.2 19.7,79.2 L55.9,79.2 C57.9,79.2 59.5,80.9 59.3,82.9 L55.7,118.6 C55.6,120.2 54.1,121.6 52.4,121.6 Z" id="Shape" fill="#0063B5"></path>
                <path d="M55.9,79.1 L37.8,79.1 L37.8,121.5 L52.4,121.5 C54.1,121.5 55.6,120.2 55.8,118.5 L59.4,82.8 C59.5,80.8 57.9,79.1 55.9,79.1 Z" id="Shape" fill="#0789EE"></path>
            </g>
            <path d="M549,215.2 C548.6,216.6 547.8,218.3 546.3,220.3 C545.5,221.1 545.1,222.5 545.5,224.1 C545.6,224.3 545.7,224.7 545.9,225.1 C546,224.9 546.2,224.7 546.3,224.5 C550.2,219.3 549.5,216.1 549,215.2 Z" id="Shape" fill="#FDB7A2" fill-rule="nonzero"></path>
            <path d="M480.5,527.4 C480.5,527.4 478.7,536.2 487.8,535 C494.3,534.2 495.8,534.3 498.8,534.8 C505.7,535.9 510.2,536.3 513.4,532 C514,530.9 514.5,529.1 510.8,528.4 C499,526.5 497.6,523.8 494.2,522.5 C492.3,521.8 492,523.6 490.8,524 C490.3,524.2 487.4,524.6 486.9,522.5 C486.2,520.8 481.4,522.2 480.5,527.4 Z" id="Shape" fill="#1D1D1D" fill-rule="nonzero"></path>
            <path d="M432.9,516.4 C432.9,516.4 431.2,525.2 440.2,524 C446.7,523.1 448.2,523.2 451.2,523.7 C458.1,524.8 462.6,525.1 465.8,520.8 C466.4,519.7 466.9,517.9 463.1,517.3 C451.3,515.4 449.9,512.8 446.4,511.5 C444.5,510.8 444.2,512.6 443,513 C442.5,513.2 439.6,513.6 439,511.6 C438.6,509.8 433.7,511.2 432.9,516.4 Z" id="Shape" fill="#1D1D1D" fill-rule="nonzero"></path>
            <path d="M488.9,443.7 C488.9,443.7 492.5,447.1 491.7,452.1 C490.9,457.1 489.1,459 489.5,466.3 C489.9,473.6 490.9,478.3 486.3,480 C486.6,476.5 488.6,446.5 488.9,443.7 Z" id="Shape" fill="#D69225" fill-rule="nonzero"></path>
            <path d="M362,355.1 L318.3,353.5 C316.1,353.4 314.4,351.7 314.4,349.5 L314.4,282.5 L362,281.5 C364.2,281.5 366.1,283.3 366.1,285.5 L366.1,351.1 C366.2,353.4 364.3,355.2 362,355.1 Z" id="Shape" fill="#D5E1EF" fill-rule="nonzero"></path>
            <g id="Group" transform="translate(320.000000, 145.000000)" fill-rule="nonzero">
                <path d="M79.3,82.1 L5.6,81.9 C3.4,81.9 1.6,80.1 1.6,77.9 L1.6,12 C1.6,9.9 3.2,8.2 5.2,8 L78.9,1.1 C81.2,0.9 83.3,2.7 83.3,5.1 L83.3,78.1 C83.3,80.3 81.5,82.1 79.3,82.1 Z" id="Shape" fill="#FFFFFF"></path>
                <path d="M80.4,83.2 L75.4,83.2 L75.4,81.1 L80.3,81.1 L80.4,83.2 Z M71.9,83.1 L67,83.1 L67,81 L71.9,81 L71.9,83.1 Z M63.5,83.1 L58.6,83.1 L58.6,81 L63.5,81 L63.5,83.1 Z M55.1,83.1 L50.2,83.1 L50.2,81 L55.1,81 L55.1,83.1 Z M46.7,83.1 L41.8,83.1 L41.8,81 L46.7,81 L46.7,83.1 Z M38.2,83 L33.3,83 L33.3,80.9 L38.2,80.9 L38.2,83 Z M29.8,83 L24.9,83 L24.9,80.9 L29.8,80.9 L29.8,83 Z M21.4,83 L16.5,83 L16.5,80.9 L21.4,80.9 L21.4,83 Z M13,83 L8.1,83 L8.1,80.9 L13,80.9 L13,83 Z M4,82.8 L3.1,82.3 C2.1,81.7 1.3,80.7 0.9,79.6 L0.5,78.6 L2.5,77.9 L2.9,78.9 C3.1,79.6 3.6,80.1 4.2,80.5 L5.1,81 L4,82.8 Z M84.1,79.9 L82,79.6 L82.2,78.6 C82.2,78.4 82.2,78.3 82.2,78.1 L82.2,74.9 L84.3,74.9 L84.3,78.1 C84.3,78.4 84.3,78.6 84.2,78.9 L84.1,79.9 Z M2.7,74.7 L0.6,74.7 L0.6,69.8 L2.7,69.8 L2.7,74.7 Z M84.4,71.4 L82.3,71.4 L82.3,66.5 L84.4,66.5 L84.4,71.4 Z M2.7,66.3 L0.6,66.3 L0.6,61.4 L2.7,61.4 L2.7,66.3 Z M84.4,62.9 L82.3,62.9 L82.3,58 L84.4,58 L84.4,62.9 Z M2.7,57.8 L0.6,57.8 L0.6,52.9 L2.7,52.9 L2.7,57.8 Z M84.4,54.5 L82.3,54.5 L82.3,49.6 L84.4,49.6 L84.4,54.5 Z M2.7,49.4 L0.6,49.4 L0.6,44.5 L2.7,44.5 L2.7,49.4 Z M84.4,46.1 L82.3,46.1 L82.3,41.2 L84.4,41.2 L84.4,46.1 Z M2.7,41 L0.6,41 L0.6,36.1 L2.7,36.1 L2.7,41 Z M84.4,37.7 L82.3,37.7 L82.3,32.8 L84.4,32.8 L84.4,37.7 Z M2.7,32.6 L0.6,32.6 L0.6,27.7 L2.7,27.7 L2.7,32.6 Z M84.4,29.3 L82.3,29.3 L82.3,24.4 L84.4,24.4 L84.4,29.3 Z M2.7,24.2 L0.6,24.2 L0.6,19.3 L2.7,19.3 L2.7,24.2 Z M84.4,20.8 L82.3,20.8 L82.3,15.9 L84.4,15.9 L84.4,20.8 Z M2.7,15.7 L0.6,15.7 L0.6,10.7 L2.7,10.8 L2.7,12 L2.7,15.7 Z M84.4,12.4 L82.3,12.4 L82.3,7.5 L84.4,7.5 L84.4,12.4 Z M4.2,9.3 L3.9,7.2 L5.1,7.1 L8.8,6.7 L9,8.8 L4.2,9.3 Z M12.6,8.4 L12.4,6.3 L17.3,5.8 L17.5,7.9 L12.6,8.4 Z M20.9,7.7 L20.7,5.6 L25.6,5.1 L25.8,7.2 L20.9,7.7 Z M29.3,6.9 L29.1,4.8 L34,4.3 L34.2,6.4 L29.3,6.9 Z M37.7,6.1 L37.5,4 L42.4,3.5 L42.6,5.6 L37.7,6.1 Z M46.1,5.3 L45.9,3.2 L50.8,2.7 L51,4.8 L46.1,5.3 Z M82.4,4.5 L81.8,3.6 C81.4,3 80.9,2.6 80.2,2.3 L79.2,2 L79.9,0 L80.9,0.3 C82,0.7 83,1.5 83.6,2.5 L84.2,3.4 L82.4,4.5 Z M54.5,4.5 L54.3,2.4 L59.2,1.9 L59.4,4 L54.5,4.5 Z M62.9,3.7 L62.7,1.6 L67.6,1.1 L67.8,3.2 L62.9,3.7 Z M71.2,2.9 L71,0.8 L75.9,0.3 L76.1,2.4 L71.2,2.9 Z" id="Shape" fill="#0789EE"></path>
            </g>
            <g id="Group" transform="translate(303.000000, 270.000000)" fill-rule="nonzero">
                <path d="M49,75.1 L5.3,73.5 C3.1,73.4 1.4,71.7 1.4,69.5 L1.4,6.4 C1.4,4.2 3.1,2.4 5.3,2.4 L49,1.5 C51.2,1.5 53.1,3.3 53.1,5.5 L53.1,71.1 C53.2,73.4 51.3,75.2 49,75.1 Z" id="Shape" fill="#FFFFFF"></path>
                <path d="M50.1,76.2 L49,76.2 L49,75.1 L48.9,76.2 L45,76.1 L45.1,74 L50.1,74.2 L50.1,76.2 Z M41.4,75.9 L36.4,75.7 L36.5,73.6 L41.5,73.8 L41.4,75.9 Z M32.8,75.6 L27.8,75.4 L27.9,73.3 L32.9,73.5 L32.8,75.6 Z M24.2,75.3 L19.2,75.1 L19.3,73 L24.3,73.2 L24.2,75.3 Z M15.6,75 L10.6,74.8 L10.7,72.7 L15.7,72.9 L15.6,75 Z M7,74.7 L5.3,74.6 C4.3,74.6 3.4,74.3 2.6,73.7 L1.7,73.1 L2.9,71.3 L3.8,71.9 C4.3,72.2 4.8,72.4 5.3,72.4 L7,72.5 L7,74.7 Z M54,73 L51.9,72.7 L52.1,71.7 C52.1,71.5 52.1,71.4 52.1,71.2 L52.1,67.9 L54.2,67.9 L54.2,71.2 C54.2,71.5 54.2,71.7 54.1,72 L54,73 Z M2.6,68.8 L0.5,68.8 L0.5,63.8 L2.6,63.8 L2.6,68.8 Z M54.2,64.2 L52.1,64.2 L52.1,59.2 L54.2,59.2 L54.2,64.2 Z M2.6,60.2 L0.5,60.2 L0.5,55.2 L2.6,55.2 L2.6,60.2 Z M54.2,55.6 L52.1,55.6 L52.1,50.6 L54.2,50.6 L54.2,55.6 Z M2.6,51.5 L0.5,51.5 L0.5,46.5 L2.6,46.5 L2.6,51.5 Z M54.2,47 L52.1,47 L52.1,42 L54.2,42 L54.2,47 Z M2.6,42.9 L0.5,42.9 L0.5,37.9 L2.6,37.9 L2.6,42.9 Z M54.2,38.4 L52.1,38.4 L52.1,33.4 L54.2,33.4 L54.2,38.4 Z M2.6,34.3 L0.5,34.3 L0.5,29.3 L2.6,29.3 L2.6,34.3 Z M54.2,29.8 L52.1,29.8 L52.1,24.8 L54.2,24.8 L54.2,29.8 Z M2.6,25.7 L0.5,25.7 L0.5,20.7 L2.6,20.7 L2.6,25.7 Z M54.2,21.2 L52.1,21.2 L52.1,16.2 L54.2,16.2 L54.2,21.2 Z M2.6,17.1 L0.5,17.1 L0.5,12.1 L2.6,12.1 L2.6,17.1 Z M54.2,12.6 L52.1,12.6 L52.1,7.6 L54.2,7.6 L54.2,12.6 Z M2.6,8.5 L0.5,8.5 L0.5,6.5 C0.5,5.7 0.7,4.9 1.1,4.2 L1.6,3.3 L3.5,4.3 L3,5.2 C2.8,5.6 2.7,6.1 2.7,6.5 L2.7,8.5 L2.6,8.5 Z M52.1,4.6 L51.4,3.8 C51,3.2 50.3,2.9 49.6,2.7 L48.6,2.5 L49,0.4 L50,0.6 C51.2,0.8 52.3,1.5 53,2.4 L53.7,3.2 L52.1,4.6 Z M5.8,3.5 L5.8,1.4 L10.8,1.3 L10.8,3.4 L5.8,3.5 Z M14.4,3.3 L14.4,1.2 L19.4,1.1 L19.4,3.2 L14.4,3.3 Z M23,3.1 L23,1 L28,0.9 L28,3 L23,3.1 Z M31.7,3 L31.7,0.9 L36.7,0.8 L36.7,2.9 L31.7,3 Z M40.3,2.8 L40.3,0.7 L45.3,0.6 L45.3,2.7 L40.3,2.8 Z" id="Shape" fill="#0789EE"></path>
            </g>
            <path d="M513,225 L512.4,224.1 C511.9,223.3 511.4,222.5 510.9,221.8 L510.3,220.9 L512.1,219.7 L512.7,220.6 C513.2,221.4 513.8,222.2 514.3,223 L514.9,223.9 L513,225 Z M508.2,218.1 L507.5,217.3 C506.9,216.6 506.3,215.8 505.7,215.1 L505,214.3 L506.6,212.9 L507.3,213.7 C507.9,214.4 508.5,215.2 509.1,215.9 L509.8,216.7 L508.2,218.1 Z M502.8,211.8 L502,211 C501.3,210.3 500.7,209.7 500,209.1 L499.2,208.4 L500.6,206.8 L501.4,207.5 C502.1,208.1 502.8,208.8 503.5,209.5 L504.3,210.2 L502.8,211.8 Z M427.1,209.6 L427.1,207.5 L428.2,207.5 C429.1,207.5 430,207.4 430.9,207.3 L432,207.2 L432.2,209.3 L431.1,209.4 C430.1,209.5 429.1,209.6 428.2,209.6 L427.1,209.6 Z M423.3,209.3 L422.3,209.1 C421.3,208.9 420.4,208.6 419.4,208.2 L418.4,207.8 L419.2,205.8 L420.2,206.2 C421,206.5 421.9,206.8 422.8,207 L423.8,207.2 L423.3,209.3 Z M435.7,208.7 L435.2,206.6 L436.2,206.4 C437.1,206.2 438,206 438.9,205.7 L439.9,205.4 L440.5,207.5 L439.5,207.8 C438.6,208.1 437.6,208.3 436.7,208.5 L435.7,208.7 Z M444,206.5 L443.4,204.5 L444.4,204.2 C445.3,203.9 446.2,203.6 447.1,203.3 L448.1,203 L448.8,205 L447.8,205.3 C446.9,205.6 446,205.9 445.1,206.2 L444,206.5 Z M496.5,206.3 L495.6,205.7 C494.8,205.2 494.1,204.7 493.3,204.2 L492.4,203.7 L493.5,201.9 L494.4,202.4 C495.2,202.9 496,203.4 496.8,204 L497.7,204.6 L496.5,206.3 Z M415.1,205.9 L414.3,205.3 C413.5,204.7 412.8,204.1 412.1,203.4 L411.3,202.7 L412.8,201.2 L413.6,201.9 C414.3,202.5 415,203.1 415.7,203.7 L416.5,204.3 L415.1,205.9 Z M452.1,203.9 L451.5,201.9 L452.5,201.6 C453.4,201.3 454.3,201 455.2,200.8 L456.2,200.5 L456.8,202.5 L455.8,202.8 C454.9,203.1 454,203.4 453.1,203.6 L452.1,203.9 Z M489.4,202.1 L488.4,201.7 C487.6,201.4 486.7,201 485.8,200.8 L484.8,200.5 L485.4,198.5 L486.4,198.8 C487.3,199.1 488.2,199.4 489.1,199.8 L490.1,200.2 L489.4,202.1 Z M460.2,201.4 L459.7,199.3 L460.7,199 C461.6,198.8 462.6,198.5 463.5,198.3 L464.5,198.1 L465,200.2 L464,200.4 C463.1,200.6 462.2,200.8 461.3,201 L460.2,201.4 Z M408.8,199.8 L408.2,198.9 C407.7,198.1 407.1,197.3 406.6,196.5 L406,195.6 L407.8,194.5 L408.4,195.4 C408.9,196.2 409.4,197 409.9,197.7 L410.5,198.6 L408.8,199.8 Z M481.5,199.8 L480.4,199.6 C479.5,199.5 478.6,199.4 477.7,199.3 L476.6,199.2 L476.7,197.1 L477.8,197.2 C478.8,197.3 479.8,197.4 480.7,197.5 L481.8,197.7 L481.5,199.8 Z M468.4,199.7 L468.1,197.6 L469.2,197.5 C470.2,197.4 471.1,197.3 472.1,197.2 L473.2,197.1 L473.3,199.2 L472.2,199.3 C471.3,199.4 470.4,199.4 469.4,199.6 L468.4,199.7 Z M404.3,192.3 L403.8,191.3 C403.4,190.5 403,189.6 402.6,188.7 L402.2,187.7 L404.2,186.9 L404.6,187.9 C405,188.8 405.4,189.6 405.7,190.4 L406.2,191.4 L404.3,192.3 Z" id="Shape" fill="#0789EE" fill-rule="nonzero"></path>
            <path d="M305.6,309.4 L300.6,309.4 L300.6,307.3 L305.5,307.3 L305.5,309.4 L305.6,309.4 Z M296.7,308.5 L295.8,308 C294.9,307.5 294,306.9 293.3,306.3 L292.5,305.6 L293.9,304 L294.7,304.7 C295.4,305.3 296.1,305.8 296.8,306.2 L297.7,306.7 L296.7,308.5 Z M290,302.2 L289.6,301.2 C289.2,300.2 288.9,299.2 288.8,298.2 L288.6,297.1 L290.7,296.8 L290.9,297.9 C291,298.8 291.3,299.6 291.6,300.4 L292,301.4 L290,302.2 Z M290.8,293.5 L288.7,293.5 L288.7,288.5 L290.8,288.5 L290.8,293.5 Z M290.8,285 L288.7,285 L288.7,280 L290.8,280 L290.8,285 Z M290.8,276.5 L288.7,276.5 L288.7,271.5 L290.8,271.5 L290.8,276.5 Z M290.8,268 L288.7,268 L288.7,263 L290.8,263 L290.8,268 Z M290.8,259.5 L288.7,259.5 L288.7,254.5 L290.8,254.5 L290.8,259.5 Z M290.8,251 L288.7,251 L288.7,246 L290.8,246 L290.8,251 Z M290.8,242.5 L288.7,242.5 L288.7,237.5 L290.8,237.5 L290.8,242.5 Z M290.8,234 L288.7,234 L288.7,229 L290.8,229 L290.8,234 Z M290.8,225.5 L288.7,225.5 L288.7,220.5 L290.8,220.5 L290.8,225.5 Z M290.8,217 L288.7,217 L288.7,212 L290.8,212 L290.8,217 Z M290.8,208.5 L288.7,208.5 L288.7,203.5 L290.8,203.5 L290.8,208.5 Z M290.9,200.2 L288.8,199.7 L289.1,198.7 C289.3,197.7 289.7,196.7 290.2,195.8 L290.7,194.9 L292.6,195.9 L292.1,196.8 C291.7,197.6 291.4,198.4 291.2,199.2 L290.9,200.2 Z M294.5,193.5 L293.3,191.8 L294.2,191.2 C295,190.6 295.9,190.1 296.9,189.7 L297.9,189.3 L298.7,191.3 L297.7,191.7 C296.9,192 296.1,192.4 295.4,192.9 L294.5,193.5 Z M322.7,190.9 L318.8,190.9 L318.8,188.8 L322.7,188.8 L322.7,190.9 Z M315.2,190.9 L310.2,190.9 L310.2,188.8 L315.2,188.8 L315.2,190.9 Z M306.7,190.9 L301.7,190.9 L301.7,188.8 L306.7,188.8 L306.7,190.9 Z" id="Shape" fill="#0789EE" fill-rule="nonzero"></path>
            <ellipse id="Oval" fill="#D5E1EF" fill-rule="nonzero" cx="329.4" cy="308.4" rx="7.7" ry="14"></ellipse>
            <circle id="Oval" fill="#0789EE" fill-rule="nonzero" cx="289.8" cy="249.1" r="7.1"></circle>
            <circle id="Oval" fill="#0789EE" fill-rule="nonzero" cx="228" cy="393.3" r="7.1"></circle>
            <circle id="Oval" fill="#0789EE" fill-rule="nonzero" cx="461.4" cy="199.4" r="7.1"></circle>
            <path d="M319.6,397.6 L314.7,397.4 L314.8,395.3 L319.8,395.5 L319.6,397.6 Z M311.1,397.2 L306.1,397 L306.2,394.9 L311.2,395.1 L311.1,397.2 Z M302.7,396.9 L297.7,396.7 L297.8,394.6 L302.8,394.8 L302.7,396.9 Z M323.6,396.8 L322.7,394.9 L323.7,394.5 C324.5,394.2 325.2,393.7 325.9,393.2 L326.7,392.6 L328,394.3 L327.2,394.9 C326.4,395.5 325.5,396.1 324.6,396.5 L323.6,396.8 Z M294.2,396.6 L289.2,396.4 L289.3,394.3 L294.3,394.5 L294.2,396.6 Z M285.7,396.3 L280.7,396.1 L280.8,394 L285.8,394.2 L285.7,396.3 Z M277.2,396 L272.2,395.8 L272.3,393.7 L277.3,393.9 L277.2,396 Z M268.7,395.7 L263.7,395.5 L263.8,393.4 L268.8,393.6 L268.7,395.7 Z M260.2,395.4 L255.2,395.2 L255.3,393.1 L260.3,393.3 L260.2,395.4 Z M251.7,395.1 L246.7,394.9 L246.8,392.8 L251.8,393 L251.7,395.1 Z M243.2,394.8 L238.2,394.6 L238.3,392.5 L243.3,392.7 L243.2,394.8 Z M234.7,394.5 L229.7,394.3 L229.8,392.2 L234.8,392.4 L234.7,394.5 Z M330.6,391 L328.7,390.1 L329.2,389.1 C329.6,388.3 329.8,387.5 330,386.7 L330.2,385.7 L332.3,386.1 L332.1,387.1 C331.9,388.1 331.6,389.1 331.1,390 L330.6,391 Z M332.3,382.4 L330.2,382.4 L330.2,377.4 L332.3,377.4 L332.3,382.4 Z M332.3,373.8 L330.2,373.8 L330.2,368.8 L332.3,368.8 L332.3,373.8 Z M332.3,365.3 L330.2,365.3 L330.2,360.3 L332.3,360.3 L332.3,365.3 Z M332.3,356.8 L330.2,356.8 L330.2,351.8 L332.3,351.8 L332.3,356.8 Z M332.3,348.3 L330.2,348.3 L330.2,343.3 L332.3,343.3 L332.3,348.3 Z" id="Shape" fill="#0789EE" fill-rule="nonzero"></path>
            <g id="Group" transform="translate(383.000000, 252.000000)" fill-rule="nonzero">
                <path d="M70.1,72.3 L12.5,72.1 C10.8,72.1 9.4,70.7 9.4,69 L9.4,14.7 L69.8,9 C71.6,8.8 73.2,10.3 73.2,12.1 L73.2,69.1 C73.2,70.9 71.8,72.3 70.1,72.3 Z" id="Shape" fill="#D5E1EF"></path>
                <g id="Shape">
                    <path d="M62.2,64.5 L4.6,64.3 C2.9,64.3 1.5,62.9 1.5,61.2 L1.5,9.7 C1.5,8.1 2.7,6.7 4.3,6.6 L61.9,1.2 C63.7,1 65.3,2.5 65.3,4.3 L65.3,61.3 C65.4,63.1 64,64.5 62.2,64.5 Z" fill="#FFFFFF"></path>
                    <path d="M63.3,65.5 L58.3,65.5 L58.3,63.4 L63.2,63.4 L63.3,65.5 Z M54.9,65.5 L50,65.5 L50,63.4 L54.9,63.4 L54.9,65.5 Z M46.5,65.5 L41.6,65.5 L41.6,63.4 L46.5,63.4 L46.5,65.5 Z M38.1,65.5 L33.2,65.5 L33.2,63.4 L38.1,63.4 L38.1,65.5 Z M4.1,65.5 L3.1,65.1 C1.9,64.6 1,63.6 0.7,62.4 L0.4,61.4 L2.4,60.8 L2.7,61.8 C2.9,62.4 3.3,62.9 3.9,63.1 L4.9,63.5 L4.1,65.5 Z M29.7,65.5 L24.8,65.5 L24.8,63.4 L29.7,63.4 L29.7,65.5 Z M21.3,65.4 L16.4,65.4 L16.4,63.3 L21.3,63.3 L21.3,65.4 Z M12.9,65.4 L8,65.4 L8,63.3 L12.9,63.3 L12.9,65.4 Z M66.4,61.7 L64.3,61.7 L64.3,56.8 L66.4,56.8 L66.4,61.7 Z M2.6,57.6 L0.5,57.6 L0.5,52.7 L2.6,52.7 L2.6,57.6 Z M66.4,53.3 L64.3,53.3 L64.3,48.4 L66.4,48.4 L66.4,53.3 Z M2.6,49.2 L0.5,49.2 L0.5,44.3 L2.6,44.3 L2.6,49.2 Z M66.4,44.9 L64.3,44.9 L64.3,40 L66.4,40 L66.4,44.9 Z M2.6,40.8 L0.5,40.8 L0.5,35.9 L2.6,35.9 L2.6,40.8 Z M66.4,36.5 L64.3,36.5 L64.3,31.6 L66.4,31.6 L66.4,36.5 Z M2.6,32.4 L0.5,32.4 L0.5,27.5 L2.6,27.5 L2.6,32.4 Z M66.4,28.1 L64.3,28.1 L64.3,23.2 L66.4,23.2 L66.4,28.1 Z M2.6,24 L0.5,24 L0.5,19 L2.6,19 L2.6,24 Z M66.4,19.7 L64.3,19.7 L64.3,14.8 L66.4,14.8 L66.4,19.7 Z M2.6,15.6 L0.5,15.6 L0.5,10.7 L2.6,10.7 L2.6,15.6 Z M66.4,11.3 L64.3,11.3 L64.3,6.4 L66.4,6.4 L66.4,11.3 Z M2.8,8.3 L1.9,6.4 L2.9,6 C3.3,5.8 3.7,5.7 4.2,5.7 L7,5.4 L7.2,7.5 L4.4,7.8 C4.2,7.8 4,7.9 3.8,8 L2.8,8.3 Z M10.8,7.1 L10.6,5 L15.5,4.5 L15.7,6.6 L10.8,7.1 Z M19.1,6.3 L18.9,4.2 L23.8,3.7 L24,5.8 L19.1,6.3 Z M27.5,5.5 L27.3,3.4 L32.2,2.9 L32.4,5 L27.5,5.5 Z M35.9,4.7 L35.7,2.6 L40.6,2.1 L40.8,4.2 L35.9,4.7 Z M44.2,3.9 L44,1.8 L48.9,1.3 L49.1,3.4 L44.2,3.9 Z M64.5,3.6 L63.7,2.8 C63.3,2.4 62.7,2.1 62,2.2 L60.9,2.3 L60.6,0.2 L61.7,0.1 C63,-8.32667268e-17 64.2,0.4 65.1,1.3 L65.9,2.1 L64.5,3.6 Z M52.6,3.1 L52.4,1 L57.3,0.5 L57.5,2.6 L52.6,3.1 Z" fill="#0789EE"></path>
                </g>
                <polygon id="Shape" fill="#DCE7F7" points="34.8 30 11 30.5 11 16.7 34.8 15"></polygon>
                <polygon id="Shape" fill="#DCE7F7" points="34.8 54.2 11 54.2 11 36.1 34.8 35.8"></polygon>
            </g>
            <g id="Group" transform="translate(449.000000, 324.000000)" fill-rule="nonzero">
                <path d="M70.1,72.8 L12.5,72.6 C10.8,72.6 9.4,71.2 9.4,69.5 L9.4,15.2 L69.8,9.5 C71.6,9.3 73.2,10.8 73.2,12.6 L73.2,69.6 C73.2,71.4 71.8,72.8 70.1,72.8 Z" id="Shape" fill="#D5E1EF"></path>
                <g id="Shape">
                    <path d="M62.3,65 L4.7,64.8 C3,64.8 1.6,63.4 1.6,61.7 L1.6,10.2 C1.6,8.6 2.8,7.2 4.4,7.1 L62,1.7 C63.8,1.5 65.4,3 65.4,4.8 L65.4,61.8 C65.4,63.6 64,65 62.3,65 Z" fill="#FFFFFF"></path>
                    <path d="M63.4,66 L58.4,66 L58.4,63.9 L63.3,63.9 L63.4,66 Z M55,66 L50.1,66 L50.1,63.9 L55,63.9 L55,66 Z M46.6,66 L41.7,66 L41.7,63.9 L46.6,63.9 L46.6,66 Z M38.2,66 L33.3,66 L33.3,63.9 L38.2,63.9 L38.2,66 Z M4.1,66 L3.1,65.6 C1.9,65.1 1,64.1 0.7,62.9 L0.4,61.9 L2.4,61.3 L2.7,62.3 C2.9,62.9 3.3,63.4 3.9,63.6 L4.9,64 L4.1,66 Z M29.8,65.9 L24.9,65.9 L24.9,63.8 L29.8,63.8 L29.8,65.9 Z M21.4,65.9 L16.5,65.9 L16.5,63.8 L21.4,63.8 L21.4,65.9 Z M13,65.9 L8.1,65.9 L8.1,63.8 L13,63.8 L13,65.9 Z M66.5,62.2 L64.4,62.2 L64.4,57.3 L66.5,57.3 L66.5,62.2 Z M2.6,58 L0.5,58 L0.5,53.1 L2.6,53.1 L2.6,58 Z M66.5,53.8 L64.4,53.8 L64.4,48.9 L66.5,48.9 L66.5,53.8 Z M2.6,49.6 L0.5,49.6 L0.5,44.7 L2.6,44.7 L2.6,49.6 Z M66.5,45.4 L64.4,45.4 L64.4,40.5 L66.5,40.5 L66.5,45.4 Z M2.6,41.2 L0.5,41.2 L0.5,36.3 L2.6,36.3 L2.6,41.2 Z M66.5,37 L64.4,37 L64.4,32.1 L66.5,32.1 L66.5,37 Z M2.6,32.8 L0.5,32.8 L0.5,27.9 L2.6,27.9 L2.6,32.8 Z M66.5,28.6 L64.4,28.6 L64.4,23.7 L66.5,23.7 L66.5,28.6 Z M2.6,24.4 L0.5,24.4 L0.5,19.5 L2.6,19.5 L2.6,24.4 Z M66.5,20.2 L64.4,20.2 L64.4,15.3 L66.5,15.3 L66.5,20.2 Z M2.6,16 L0.5,16 L0.5,11.1 L2.6,11.1 L2.6,16 Z M66.5,11.8 L64.4,11.8 L64.4,6.9 L66.5,6.9 L66.5,11.8 Z M2.9,8.7 L2,6.8 L3,6.4 C3.4,6.2 3.8,6.1 4.3,6.1 L7.1,5.8 L7.3,7.9 L4.5,8.2 C4.3,8.2 4.1,8.3 3.9,8.4 L2.9,8.7 Z M10.8,7.6 L10.6,5.5 L15.5,5 L15.7,7.1 L10.8,7.6 Z M19.2,6.8 L19,4.7 L23.9,4.2 L24.1,6.3 L19.2,6.8 Z M27.5,6 L27.3,3.9 L32.2,3.4 L32.4,5.5 L27.5,6 Z M35.9,5.2 L35.7,3.1 L40.6,2.6 L40.8,4.7 L35.9,5.2 Z M44.3,4.4 L44.1,2.3 L49,1.8 L49.2,3.9 L44.3,4.4 Z M64.5,4.1 L63.7,3.3 C63.3,2.9 62.7,2.6 62,2.7 L60.9,2.8 L60.6,0.7 L61.7,0.6 C63,0.5 64.2,0.9 65.1,1.8 L65.9,2.6 L64.5,4.1 Z M52.6,3.6 L52.4,1.5 L57.3,1 L57.5,3.1 L52.6,3.6 Z" fill="#0789EE"></path>
                </g>
                <polygon id="Shape" fill="#DCE7F7" points="56.9 25.1 10.2 25.5 10.2 17.6 56.9 14.2"></polygon>
                <polygon id="Shape" fill="#DCE7F7" points="31.5 40.2 10.2 39.5 10.2 31.5 31.5 31.5"></polygon>
            </g>
            <path d="M445.9,280.2 C445.9,280.2 447.4,278.3 446.9,275.8 C446.4,273.3 442.7,258.9 442.7,258.9 L446.1,253 L451.4,246.6 L453.6,246.6 C453.6,246.6 458.1,249.5 456.3,252.2 C457.2,253.8 460,257 460.3,257.3 C462.1,259.4 461.5,259.8 460.1,260.7 C460.7,261.9 467.1,271.8 459.5,272.7 C459.2,274.1 459.4,278.7 462,280.7 C454.2,285.2 445.9,280.2 445.9,280.2 Z" id="Shape" fill="#FDB7A2" fill-rule="nonzero"></path>
            <path d="M448.9,276.4 C446.7,277.5 444.2,277 443.9,274.6 C443.8,274.1 443.8,273.6 443.8,273.1 C443.8,270.8 424,272.4 424.1,256.7 C421,251.9 420.9,243.6 434.7,243.6 C430.7,238.9 434.9,232.2 444.4,236.5 C441.9,232.3 447.4,227.7 453.5,231.1 C458.8,234.6 464,243.7 452.7,248.7 C449.9,250.3 459.2,257.4 449,256.1 C447.2,256.1 446.3,257.7 446.3,259.3 C446.3,260.9 447.3,263.2 450.8,264.6 C454,265.9 459.4,270.9 448.9,276.4 Z" id="Shape" fill="#1D1D1D" fill-rule="nonzero"></path>
            <path d="M420.3,319 C420.3,319 419,322.9 414.4,328.7 C413.1,330 412.2,332.5 415.6,335 C419,337.5 424.6,340.1 431.5,341.4 C431.5,336 434.7,322.3 420.3,319 Z" id="Shape" fill="#D88577" fill-rule="nonzero"></path>
            <path d="M496.3,267.9 C496.3,267.9 519,253.3 528.6,241.4 C538.3,229.5 543,223.5 544.7,221 C546.4,218.5 548.1,215.8 548.1,215.8 C548.1,215.8 548.5,214.6 548.9,215 C549.3,215.4 550.6,218.8 546.4,224.5 C545.6,225.3 545.2,226.7 545.6,228.3 C546.1,229.9 550,238.3 545.1,239.1 C540.2,239.9 539.1,239.3 536.2,245.5 C533.3,251.7 529,266.5 498.2,287.9 C497.7,286.4 496.3,267.9 496.3,267.9 Z" id="Shape" fill="#FDB7A2" fill-rule="nonzero"></path>
            <path d="M545,234.8 C540.1,235.6 539,235 536.1,241.2 C533.2,247.4 528.9,262.2 498.1,283.6 C497.6,285.4 497.7,286.4 498.1,287.8 C528.9,266.3 533.2,251.6 536.1,245.4 C539,239.2 540.1,239.7 545,239 C547.7,238.6 547.7,235.9 547.1,233.2 C546.8,234 546.2,234.6 545,234.8 Z" id="Shape" fill="#D88577" fill-rule="nonzero"></path>
            <path d="M459.6,272.5 C459.6,272.5 456.5,272.2 456.7,274.6 C456.9,276.8 458.1,279.2 460.9,279.2 C460.6,278.9 459.1,276.2 459.6,272.5 Z" id="Shape" fill="#D88577" fill-rule="nonzero"></path>
            <path d="M451.8,261.5 C451.8,261.5 450.1,261.8 449.5,260.1 C449.3,259.3 449.7,258.9 450.4,259.1 C450.5,259.1 451.1,259.3 450.8,259.9 C450.5,260.4 451,261.1 451.6,260.6 C452.5,260 453,261.4 451.8,261.5 Z" id="Shape" fill="#D88577" fill-rule="nonzero"></path>
            <path d="M456.4,252 C456.4,252 453.9,254.2 454.8,255.5 C455.5,256.2 455.3,254.1 456,254.7 C456.8,255.4 457.8,255.2 457.8,254 C457,253.1 456.4,252 456.4,252 Z" id="Shape" fill="#D88577" fill-rule="nonzero"></path>
            <path d="M426.6,387.1 L444,428.5 C446.8,435.1 447.6,442.3 446.3,449.3 L436.2,506.2 C436,507.1 436.7,507.9 437.6,507.9 L445.4,507.9 C446.5,507.9 447.4,507.2 447.8,506.2 L466.5,448.7 C468.9,441.2 469,433.1 466.7,425.5 L457.8,399.7 L482,434.3 C485.3,439.2 486.8,445 486.5,450.9 L482.7,516.6 C482.6,517.8 483.5,518.8 484.7,518.9 L492.3,519.6 C493.4,519.7 494.5,518.9 494.7,517.8 L509.1,450.4 C510.7,442.9 509.7,435 506.2,428.1 L472.4,361.4 C472.4,361.4 445.8,348.3 424.6,364.8 C420.1,373.8 423.7,381.5 426.6,387.1 Z" id="Shape" fill="#F8BB4D" fill-rule="nonzero"></path>
            <path d="M424.7,364.9 C424.7,364.9 432.7,344.9 429.7,329.3 C429.2,326.8 427.6,324.8 425.4,323.6 C421.9,321.8 418.4,319.4 417.8,316.4 C419.4,314.8 422.8,312.1 423.7,304.7 C424.5,299.2 427.6,279.8 447.3,279.4 C447.5,279.4 447.6,279.4 447.8,279.4 C454.4,279.5 464.9,280.1 469.1,277.5 C472.6,275.3 477.5,271.5 490.6,270.4 C492.8,270.4 493.8,269.4 494.5,268.7 C495.2,268 496.9,267 498.1,270.9 C499.2,274.7 502.6,283.4 496.8,292.9 C495.1,295.7 490.3,301.4 485.7,304.5 C485.5,314.3 487.6,330.3 478.2,344.1 C472.9,351.9 472.7,356.8 472.5,361.7 C459.5,356.9 440.3,355.1 424.7,364.9 Z" id="Shape" fill="#0789EE" fill-rule="nonzero"></path>
            <path d="M423.7,304.6 C423.7,304.6 422.8,319.7 427.1,324.8 C426.5,324.3 425.4,323.7 424.7,323.3 C424,322.9 418.5,320.3 417.8,316.4 C423,311.9 423.6,305.3 423.7,304.6 Z" id="Shape" fill="#005FA0" fill-rule="nonzero"></path>
            <path d="M485.6,304.3 C485.6,304.3 478.7,308.2 481.4,311.9 C482.5,313.2 484,314.4 485.7,315 C485.7,311.8 485.7,307.1 485.6,304.3 Z" id="Shape" fill="#005FA0" fill-rule="nonzero"></path>
            <circle id="Oval" fill="#38B800" fill-rule="nonzero" cx="656.1" cy="7.2" r="7.1"></circle>
            <circle id="Oval" fill="#38B800" fill-rule="nonzero" cx="656.1" cy="7.2" r="7.1"></circle>
            <path d="M426.6,387.1 L444,428.5 C446.8,435.1 447.6,442.3 446.3,449.3 L436.2,506.2 C436,507.1 436.7,507.9 437.6,507.9 L445.4,507.9 C446.5,507.9 447.4,507.2 447.8,506.2 L466.5,448.7 C468.9,441.2 469,433.1 466.7,425.5 L457.8,399.7 C457.8,399.7 452.8,388.9 436.6,384.6 C420.5,380.3 424.6,364.9 424.6,364.9 C420.1,373.8 423.7,381.5 426.6,387.1 Z" id="Shape" fill="#E2A144" fill-rule="nonzero"></path>
            <g id="Group" transform="translate(227.000000, 227.000000)" fill-rule="nonzero">
                <polygon id="Shape" fill="#FDB7A2" points="45.7 267.6 46 279 53.1 280.9 53.9 267.7"></polygon>
                <polygon id="Shape" fill="#FDB7A2" points="72 260.9 70.7 271.5 77.3 274.5 79.9 262.5"></polygon>
                <path d="M73.8,287.9 C73.8,287.9 75.8,288 75.8,285.9 C75.8,283.8 75.6,283.6 72.9,283 C70.8,282.5 59,278.3 55.8,277.1 C54.9,276.8 54,277.1 53.4,277.8 L52.6,278.8 C51.9,279.6 50.9,279.8 49.8,279.8 C48.7,279.8 47.5,279.2 45.9,278.7 C45,278.4 44.1,279.3 44.1,280.2 L43.8,285.4 C43.7,286.7 44.8,287.8 46.1,287.8 L73.8,287.9 Z" id="Shape" fill="#1D1D1D"></path>
                <path d="M95.6,285 C95.6,285 97.6,285.5 98,283.5 C98.4,281.5 98.3,281.3 95.8,280 C93.9,279 83.2,272.5 80.3,270.6 C79.5,270.1 78.5,270.2 77.8,270.7 L76.8,271.5 C76,272.2 74.9,272.1 73.9,271.9 C72.8,271.7 71.8,270.8 70.3,270 C69.5,269.6 68.5,270.2 68.2,271.1 L66.8,276.1 C66.4,277.4 67.2,278.7 68.5,278.9 L95.6,285 Z" id="Shape" fill="#1D1D1D"></path>
                <path d="M21.3,66.2 C21.3,66.2 6.9,79.8 0.6,90.8 C1.1,93.2 8.9,106.1 22.4,115.6 C25.6,117.7 30.8,121.2 33.5,125.6 C34.9,127.8 36.7,130.8 38.7,130.8 C38.7,119.9 38.7,119.9 38.7,119.9 C38.7,119.9 34.8,116.5 30.8,107.6 C28.9,103.5 25.7,95.5 19.4,92.7 C20.7,90.6 31.9,79.4 31.9,79.4 L21.3,66.2 Z" id="Shape" fill="#FDB7A2"></path>
                <path d="M29.2,109.8 C32.5,118.4 37.3,122.7 38.7,123.8 C38.7,119.9 38.7,119.9 38.7,119.9 C38.7,119.9 34.8,116.5 30.8,107.6 C28.9,103.5 25.7,95.6 19.4,92.8 C18.6,93.7 17.9,94.5 17.7,94.9 C24.1,97.7 27.3,105.6 29.2,109.8 Z" id="Shape" fill="#D88577"></path>
                <path d="M58,35.5 L56.4,43 C56.1,44.5 55.1,45.8 53.6,46.5 L53.6,46.5 L46.9,61.1 L62.4,72.1 L72.2,70 L77.1,61.6 L78.1,54 L71.6,48.9 L71.6,48.9 C70.8,48.7 70.2,47.9 70.2,47 L70.2,43.8 L76.6,44.4 C79.2,44.5 78.8,42.8 78.8,40.8 C78.8,39.9 79.3,39.4 79.5,39.2 L79.8,38.7 C80.1,38.2 80.3,37.6 80.3,37 C80.3,36.4 80.6,35.8 81.3,35.9 C82.2,36 85.2,37.1 84.1,33.7 C83.6,32.2 83.4,29.5 81.8,26.6 C83,25.4 84.1,25.6 81.8,19 C79.3,17.6 74.6,16 74.6,16 L68.4,16.9 L64.1,20.4 L60.7,25.7 L60.2,29.8 L58,35.5 Z" id="Shape" fill="#FDB7A2"></path>
                <path d="M38.8,140.2 C38.8,140.2 37.2,155.7 39.5,172.1 C45.9,218.7 44.9,266.6 44.9,266.6 L55.5,267.5 L61.7,223.2 C62.6,217.5 63.4,209.1 63.6,203.3 L65.5,170.4 C65.5,170.4 74.4,189.3 74.4,211.1 L71.2,262.1 L80.6,263 L92.1,210.2 C94.3,200.1 94.6,189.7 92.9,179.5 L86.5,140.3 L38.8,140.3 L38.8,140.2 Z" id="Shape" fill="#999999"></path>
                <path d="M64.4,31.7 C64.4,31.7 67.7,33.7 65.5,36.3 C64.4,37.7 61.5,46 56.5,42.1 C56.2,26.4 41.7,29.3 49.4,16 C45.4,3.4 66.8,-4.7 76.1,3.1 C79,6 81.1,5.3 81.9,4.5 C82.7,3.7 84.7,1.6 86.2,3.4 C88.8,6.3 93.7,23.5 81.2,19.8 C76.7,18.7 69.6,16.3 68.5,20.9 C69.3,22.9 70.5,26 71,27 C71.6,28.4 69.7,30.4 68.9,28.8 C68.6,28.2 66.6,22.4 64,26 C63.3,27.3 61.6,29.9 64.4,31.7 Z" id="Shape" fill="#8C6239"></path>
                <path d="M82,26.8 C82,26.8 78.1,26.1 77.5,28 C77.4,29.1 79.2,27.4 79.2,28.5 C79.2,29.8 80.1,30.5 81.2,29.6 C81.4,28.2 82,26.8 82,26.8 Z" id="Shape" fill="#D88577"></path>
                <path d="M65.5,30.7 C65.5,30.7 64.2,29.5 65.3,28 C65.8,27.4 66.4,27.5 66.7,28.1 C66.8,28.2 66.9,28.8 66.3,28.9 C65.7,29 65.5,29.7 66.2,30 C67.1,30.3 66.3,31.6 65.5,30.7 Z" id="Shape" fill="#D88577"></path>
                <path d="M71.7,48.9 C71.7,48.9 71.1,50.2 69.4,49.9 C67.7,49.6 65.5,43.8 70.3,43.8 C70.3,44.4 70.3,46.6 70.3,46.6 C70.3,46.6 69.9,48.4 71.7,48.9 Z" id="Shape" fill="#D88577"></path>
                <path d="M160.2,65.9 C158.2,66.1 149.1,66.4 138.4,75.6 C135.3,78 133.1,79.1 126.3,80.4 C121.8,81.3 115.3,82.7 108.6,87.5 C106.8,85.7 98.5,72.2 98.5,72.2 L83.2,79.6 C83.2,79.6 93.1,96.7 102.3,105.4 C113.9,103.2 122.3,99.8 131.5,89.9 C133.5,88 136.4,85.3 139.7,83.3 C140.8,82.6 142.3,82.2 145.1,82.2 C148.4,82.2 152.3,83.2 152.9,76.9 C153.5,71.3 157.2,69.1 161.6,68.2 C162.9,67.9 163.1,65.7 160.2,65.9 Z" id="Shape" fill="#FDB7A2"></path>
                <path d="M91.7,78.6 C91.7,78.6 95.2,95.3 104.1,105 C103.7,105.1 102.7,105.3 102.2,105.4 C101.9,105.1 94.3,97.9 87.5,86.8 C87.8,86 87.2,81.5 91.7,78.6 Z" id="Shape" fill="#D88577"></path>
                <path d="M38.8,140.2 L88.4,140.2 C88.4,140.2 82.4,112.2 86.2,92.7 C88,84.3 88.6,82.1 95,76.3 C100.5,71.3 100.6,72.2 99,68.3 C97.1,63.9 92.4,55.6 86.4,53.3 C75.7,49.2 71.8,48.9 71.8,48.9 C71.8,48.9 76.1,61.7 64.5,70.6 C57.3,68.3 52.3,58.2 53.8,46.5 L46.3,46.5 C46.3,46.5 38,47.1 31,54.4 C23.8,62 20.7,65.3 19.5,66.6 C19.1,67.1 19.1,67.8 19.6,68.2 L32.2,79.7 C33.7,81.1 36,81 37.5,79.6 L38.8,78.3 L38.8,140.2 Z" id="Shape" fill="#1D1D1D"></path>
            </g>
            <g id="Group" transform="translate(327.000000, 6.000000)" fill-rule="nonzero" fill="#FF6000">
                <polygon id="Shape" points="57 69.5 53.9 69.4 54 67.3 55.9 67.4 56.9 65.8 58.7 66.9"></polygon>
                <path d="M61,63.4 L59.2,62.2 L62.1,57.7 L63.9,58.9 L61,63.4 Z M66.1,55.4 L64.3,54.2 L67.2,49.7 L69,50.9 L66.1,55.4 Z M71.3,47.4 L69.5,46.2 L72.4,41.7 L74.2,42.9 L71.3,47.4 Z" id="Shape"></path>
                <polygon id="Shape" points="76.5 39.4 74.7 38.2 75.7 36.6 74.8 35 76.7 34 78.1 36.8"></polygon>
                <path d="M72.9,31.2 L70.5,26.5 L72.4,25.5 L74.8,30.2 L72.9,31.2 Z M68.6,22.7 L66.2,18 L68.1,17 L70.5,21.7 L68.6,22.7 Z M64.2,14.2 L61.8,9.5 L63.7,8.5 L66.1,13.2 L64.2,14.2 Z" id="Shape"></path>
                <polygon id="Shape" points="59.9 5.8 59 4.1 57.1 4 57.3 1.9 60.3 2 61.8 4.8"></polygon>
                <path d="M52.9,3.8 L47.6,3.5 L47.7,1.4 L53,1.7 L52.9,3.8 Z M43.4,3.3 L38.1,3 L38.2,0.9 L43.5,1.2 L43.4,3.3 Z M33.9,2.9 L28.6,2.6 L28.7,0.5 L34,0.8 L33.9,2.9 Z" id="Shape"></path>
                <polygon id="Shape" points="21.5 3.9 19.7 2.7 21.4 0.1 24.5 0.3 24.4 2.4 22.5 2.3"></polygon>
                <path d="M6,27.9 L4.2,26.7 L7.1,22.2 L8.9,23.4 L6,27.9 Z M11.1,19.9 L9.3,18.7 L12.2,14.2 L14,15.4 L11.1,19.9 Z M16.3,11.9 L14.5,10.7 L17.4,6.2 L19.2,7.4 L16.3,11.9 Z" id="Shape"></path>
                <polygon id="Shape" points="1.6 35.6 0.2 32.9 1.9 30.3 3.7 31.4 2.7 33 3.5 34.7"></polygon>
                <path d="M14.7,61.1 L12.3,56.4 L14.2,55.4 L16.6,60.1 L14.7,61.1 Z M10.3,52.6 L7.9,47.9 L9.8,46.9 L12.2,51.6 L10.3,52.6 Z M6,44.1 L3.6,39.4 L5.5,38.4 L7.9,43.1 L6,44.1 Z" id="Shape"></path>
                <polygon id="Shape" points="21.1 67.8 18 67.6 16.6 64.8 18.5 63.9 19.3 65.5 21.2 65.6"></polygon>
                <path d="M49.7,69.2 L44.4,68.9 L44.5,66.8 L49.8,67.1 L49.7,69.2 Z M40.1,68.7 L34.8,68.4 L34.9,66.3 L40.2,66.6 L40.1,68.7 Z M30.6,68.2 L25.3,67.9 L25.4,65.8 L30.7,66.1 L30.6,68.2 Z" id="Shape"></path>
            </g>
            <polygon id="Shape" fill="#7C7C7C" fill-rule="nonzero" points="271.2 491.4 271.2 495.4 282.9 495.7 283.6 491.4"></polygon>
            <polygon id="Shape" fill="#7C7C7C" fill-rule="nonzero" points="297.6 485.9 297.6 489.7 308 490.1 308.8 485.6"></polygon>
            <polygon id="Shape" fill="#DCE7F7" fill-rule="nonzero" points="356.3 183.6 332.5 184 332.5 163.8 356.3 162.1"></polygon>
            <polygon id="Shape" fill="#DCE7F7" fill-rule="nonzero" points="356.3 216.4 332.5 216.4 332.5 189.6 356.3 189.3"></polygon>
            <ellipse id="Oval" fill="#DCE7F7" fill-rule="nonzero" cx="377.5" cy="202.9" rx="11.3" ry="13.5"></ellipse>
            <g id="Group" transform="translate(801.000000, 186.000000)" fill-rule="nonzero" fill="#38B800">
                <polygon id="Shape" points="154.5 81 153 79.5 154 78.5 153 77.5 154.5 76 157 78.5"></polygon>
                <path d="M83.6,151.9 L82.1,150.4 L85.6,146.9 L87.1,148.4 L83.6,151.9 Z M89.5,146 L88,144.5 L91.5,141 L93,142.5 L89.5,146 Z M95.4,140.1 L93.9,138.6 L97.4,135.1 L98.9,136.6 L95.4,140.1 Z M101.3,134.2 L99.8,132.7 L103.3,129.2 L104.8,130.7 L101.3,134.2 Z M107.2,128.3 L105.7,126.8 L109.2,123.3 L110.7,124.8 L107.2,128.3 Z M113.1,122.3 L111.6,120.8 L115.1,117.3 L116.6,118.8 L113.1,122.3 Z M119,116.4 L117.5,114.9 L121,111.4 L122.5,112.9 L119,116.4 Z M124.9,110.5 L123.4,109 L126.9,105.5 L128.4,107 L124.9,110.5 Z M130.8,104.6 L129.3,103.1 L132.8,99.6 L134.3,101.1 L130.8,104.6 Z M136.8,98.7 L135.3,97.2 L138.8,93.7 L140.3,95.2 L136.8,98.7 Z M142.7,92.8 L141.2,91.3 L144.7,87.8 L146.2,89.3 L142.7,92.8 Z M148.6,86.9 L147.1,85.4 L150.6,81.9 L152.1,83.4 L148.6,86.9 Z" id="Shape"></path>
                <polygon id="Shape" points="78.7 156.8 76.1 154.3 77.7 152.8 78.7 153.8 79.7 152.8 81.2 154.3"></polygon>
                <path d="M73.7,151.9 L70.2,148.4 L71.7,146.9 L75.2,150.4 L73.7,151.9 Z M67.8,146 L64.3,142.5 L65.8,141 L69.3,144.5 L67.8,146 Z M61.9,140.1 L58.4,136.6 L59.9,135.1 L63.4,138.6 L61.9,140.1 Z M56,134.2 L52.5,130.7 L54,129.2 L57.5,132.7 L56,134.2 Z M50.1,128.3 L46.6,124.8 L48.1,123.3 L51.6,126.8 L50.1,128.3 Z M44.2,122.3 L40.7,118.8 L42.2,117.3 L45.7,120.8 L44.2,122.3 Z M38.3,116.4 L34.8,112.9 L36.3,111.4 L39.8,114.9 L38.3,116.4 Z M32.4,110.5 L28.9,107 L30.4,105.5 L33.9,109 L32.4,110.5 Z M26.5,104.6 L23,101.1 L24.5,99.6 L28,103.1 L26.5,104.6 Z M20.6,98.7 L17.1,95.2 L18.6,93.7 L22.1,97.2 L20.6,98.7 Z M14.6,92.8 L11.1,89.3 L12.6,87.8 L16.1,91.3 L14.6,92.8 Z M8.7,86.9 L5.2,83.4 L6.7,81.9 L10.2,85.4 L8.7,86.9 Z" id="Shape"></path>
                <polygon id="Shape" points="2.8 81 0.3 78.5 2.8 76 4.3 77.5 3.3 78.5 4.3 79.5"></polygon>
                <path d="M6.8,75.1 L5.3,73.6 L8.8,70.1 L10.3,71.6 L6.8,75.1 Z M12.7,69.2 L11.2,67.7 L14.7,64.2 L16.2,65.7 L12.7,69.2 Z M18.6,63.2 L17.1,61.7 L20.6,58.2 L22.1,59.7 L18.6,63.2 Z M24.5,57.3 L23,55.8 L26.5,52.3 L28,53.8 L24.5,57.3 Z M30.4,51.4 L28.9,49.9 L32.4,46.4 L33.9,47.9 L30.4,51.4 Z M36.3,45.5 L34.8,44 L38.3,40.5 L39.8,42 L36.3,45.5 Z M42.2,39.6 L40.7,38.1 L44.2,34.6 L45.7,36.1 L42.2,39.6 Z M48.1,33.7 L46.6,32.2 L50.1,28.7 L51.6,30.2 L48.1,33.7 Z M54,27.8 L52.5,26.3 L56,22.8 L57.5,24.3 L54,27.8 Z M59.9,21.9 L58.4,20.4 L61.9,16.9 L63.4,18.4 L59.9,21.9 Z M65.8,16 L64.3,14.5 L67.8,11 L69.3,12.5 L65.8,16 Z M71.7,10.1 L70.2,8.6 L73.7,5.1 L75.2,6.6 L71.7,10.1 Z" id="Shape"></path>
                <polygon id="Shape" points="79.7 4.2 78.7 3.2 77.7 4.2 76.1 2.7 78.7 0.2 81.2 2.7"></polygon>
                <path d="M150.5,75.1 L147,71.6 L148.5,70.1 L152,73.6 L150.5,75.1 Z M144.6,69.2 L141.1,65.7 L142.6,64.2 L146.1,67.7 L144.6,69.2 Z M138.7,63.2 L135.2,59.7 L136.7,58.2 L140.2,61.7 L138.7,63.2 Z M132.8,57.3 L129.3,53.8 L130.8,52.3 L134.3,55.8 L132.8,57.3 Z M126.9,51.4 L123.4,47.9 L124.9,46.4 L128.4,49.9 L126.9,51.4 Z M121,45.5 L117.5,42 L119,40.5 L122.5,44 L121,45.5 Z M115.1,39.6 L111.6,36.1 L113.1,34.6 L116.6,38.1 L115.1,39.6 Z M109.2,33.7 L105.7,30.2 L107.2,28.7 L110.7,32.2 L109.2,33.7 Z M103.3,27.8 L99.8,24.3 L101.3,22.8 L104.8,26.3 L103.3,27.8 Z M97.4,21.9 L93.9,18.4 L95.4,16.9 L98.9,20.4 L97.4,21.9 Z M91.5,16 L88,12.5 L89.5,11 L93,14.5 L91.5,16 Z M85.6,10.1 L82.1,6.6 L83.6,5.1 L87.1,8.6 L85.6,10.1 Z" id="Shape"></path>
            </g>
            <path d="M253.7,186.2 L216.4,186.2 C214.7,186.2 213.4,187.6 213.4,189.2 L213.4,211.2 C213.4,212.9 214.8,214.2 216.4,214.2 L236.4,214.2 L245.3,223.1 L245.3,214.2 L253.7,214.2 C255.4,214.2 256.7,212.8 256.7,211.2 L256.7,189.2 C256.8,187.5 255.4,186.2 253.7,186.2 Z" id="Shape" fill="#DCE7F7" fill-rule="nonzero"></path>
            <path d="M868.1,386.9 L905.4,386.9 C907.1,386.9 908.4,388.3 908.4,389.9 L908.4,411.9 C908.4,413.6 907,414.9 905.4,414.9 L885.4,414.9 L876.5,423.8 L876.5,415 L868.1,415 C866.4,415 865.1,413.6 865.1,412 L865.1,390 C865.1,388.3 866.5,386.9 868.1,386.9 Z" id="Shape" fill="#DCE7F7" fill-rule="nonzero"></path>
            <path d="M450.2,62.5 L452.5,67.2 L457.7,68 C458.4,68.1 458.6,68.9 458.2,69.4 L454.5,73.1 L455.4,78.3 C455.5,79 454.8,79.5 454.2,79.2 L449.6,76.8 L445,79.2 C444.4,79.5 443.7,79 443.8,78.3 L444.7,73.1 L441,69.4 C440.5,68.9 440.8,68.1 441.5,68 L446.7,67.2 L449,62.5 C449.1,61.9 449.9,61.9 450.2,62.5 Z" id="Shape" fill="#DCE7F7" fill-rule="nonzero"></path>
            <path d="M259.9,92.7 L261.5,95.9 L265,96.4 C265.5,96.5 265.6,97 265.3,97.3 L262.8,99.8 L263.4,103.3 C263.5,103.8 263,104.1 262.6,103.9 L259.5,102.2 L256.4,103.9 C256,104.1 255.5,103.8 255.6,103.3 L256.2,99.8 L253.7,97.3 C253.4,97 253.6,96.4 254,96.4 L257.5,95.9 L259.1,92.7 C259.2,92.3 259.7,92.3 259.9,92.7 Z" id="Shape" fill="#DCE7F7" fill-rule="nonzero"></path>
            <path d="M945.1,333.9 L947,337.8 L951.3,338.4 C951.9,338.5 952.1,339.2 951.7,339.6 L948.6,342.7 L949.3,347 C949.4,347.6 948.8,348 948.3,347.7 L944.4,345.7 L940.5,347.7 C940,348 939.4,347.5 939.5,347 L940.2,342.7 L937.1,339.6 C936.7,339.2 936.9,338.5 937.5,338.4 L941.8,337.8 L943.7,333.9 C944.1,333.4 944.9,333.4 945.1,333.9 Z" id="Shape" fill="#DCE7F7" fill-rule="nonzero"></path>
            <path d="M386.2,559.4 L388.1,563.3 L392.4,563.9 C393,564 393.2,564.7 392.8,565.1 L389.7,568.2 L390.4,572.5 C390.5,573.1 389.9,573.5 389.4,573.2 L385.5,571.2 L381.6,573.2 C381.1,573.5 380.5,573 380.6,572.5 L381.3,568.2 L378.2,565.1 C377.8,564.7 378,564 378.6,563.9 L382.9,563.3 L384.8,559.4 C385.2,558.9 385.9,558.9 386.2,559.4 Z" id="Shape" fill="#DCE7F7" fill-rule="nonzero"></path>
            <rect id="Rectangle-path" fill="#DCE7F7" fill-rule="nonzero" transform="translate(505.824340, 15.600370) rotate(-45.000000) translate(-505.824340, -15.600370) " x="497.274422" y="7.05045199" width="17.099836" height="17.099836"></rect>
            <rect id="Rectangle-path" fill="#DCE7F7" fill-rule="nonzero" transform="translate(300.342090, 604.537120) rotate(-45.000000) translate(-300.342090, -604.537120) " x="290.492184" y="594.687214" width="19.6998111" height="19.6998111"></rect>
            <path d="M278.1,371.3 L271.1,387" id="Shape" stroke="#808080"></path>
            <path d="M471.1,363.9 C471.1,363.9 474.5,375.6 462.2,378.4" id="Shape" stroke="#E2A144"></path>
            <path d="M306,371.3 L312.6,386.2" id="Shape" stroke="#808080"></path>
            <g id="Group" transform="translate(115.000000, 243.000000)">
                <path d="M45.9,120.8 L79.3,120.8 L82.4,129.3 C83.8,133.1 84.7,137 85.1,141.1 L86.1,150.4 C86.5,153.8 86.5,157.2 86.1,160.5 L74.1,281.1 L66.6,281.1 L62.3,159.2 L52.3,281.1 L44.3,281.1 L37.9,160.7 C37.7,157.6 37.9,154.4 38.3,151.3 L39.6,141.4 C40.1,137.7 41,134 42.4,130.5 L45.9,120.8 Z" id="Shape" fill="#0A71ED" fill-rule="nonzero"></path>
                <path d="M120.8,92.8 C119.9,91.9 120.6,90.9 121.4,90.6 C123.5,89.8 122.4,88.7 122.1,88.6 C119.8,88.1 118,90.8 116.8,92.3 C116.5,92.7 116.2,93 115.9,93.3 C114.8,94.5 113.2,95.1 111.6,95 C110.7,94.9 109.7,94.7 108.4,94.3 C97.6,90.6 90.4,87.6 88.1,87.2 C85.8,86.8 85.4,85.3 84.8,83.7 C81.9,74.9 81.2,71.9 81.2,71.9 C81.2,71.9 76.2,73.1 70.1,74.7 C75.2,84.7 78.2,90.5 80.9,93.1 C87,98.9 96.8,99.3 102.1,99.6 C107.4,99.9 117.1,99.9 117.1,99.9 C123.2,99.7 125.8,94.4 125.8,94.4 C125.8,94.4 121.3,92.9 120.8,92.8 Z" id="Shape" fill="#FDB7A2" fill-rule="nonzero"></path>
                <path d="M70.7,76.2 C75.5,85.4 78.4,90.8 81.1,93.3 C83,95 85.2,96.3 87.5,97.2 C86.3,96.5 85.2,95.7 84.1,94.8 C81.3,92.2 78.2,86.5 73.1,76.6 C73.6,76.5 74.1,76.4 74.6,76.2 L70.7,76.2 Z" id="Shape" fill="#D88577" fill-rule="nonzero"></path>
                <polygon id="Shape" fill="#FDB7A2" fill-rule="nonzero" points="67.4 281.1 67.4 292.3 71.6 293.2 72.9 291.9 73.3 281.1"></polygon>
                <polygon id="Shape" fill="#FDB7A2" fill-rule="nonzero" points="45.3 281.1 45.3 291.8 49.5 292.7 50.8 291.4 51.3 281"></polygon>
                <path d="M61.3,38.6 C61.3,38.6 60.7,43.7 64.6,46.1 C61.8,49.6 53.8,48.9 53.8,48.9 L51.1,43.8 L52.3,37.1 L58.8,33.6 L61.3,38.6 Z" id="Shape" fill="#2D0008" fill-rule="nonzero"></path>
                <path d="M79.4,120.8 C79.4,120.8 56.9,120.8 46,120.8 C45.5,108.4 41.6,100.8 32.9,82 C39.2,80.4 52.2,76.2 53.8,62.7 C58.3,64.4 67.5,66.1 64.3,46.2 C67.8,46.2 72,45.8 77.1,57.2 C82.2,68.6 83.1,70.7 83.1,70.7 L73.2,80 C73.1,79.9 75.5,98 79.4,120.8 Z" id="Shape" fill="#8CC63F" fill-rule="nonzero"></path>
                <path d="M32.1,81 C32.1,81 30,90 26.9,96.7 C26.5,98.3 26.7,99.9 28.3,101.5 C29.9,103.1 36.7,110.5 42,119.6 C44.9,124.2 49.3,126.3 50.8,126.8 C49.9,130.1 47.9,132.1 47.9,132.1 C47.9,132.1 37.2,123.7 33.1,120.4 C29,117.1 20.8,110.4 19.1,102.2 C18.3,98.5 17.6,89.6 20.9,80.9 C26.9,81 32.1,81 32.1,81 Z" id="Shape" fill="#FDB7A2" fill-rule="nonzero"></path>
                <path d="M43,122.1 C45.2,125.6 48.2,127.6 50.2,128.7 C50.4,128.2 50.7,127.6 50.8,126.9 C49.3,126.4 44.9,124.3 42,119.7 C36.7,110.6 29.9,103.2 28.3,101.6 C28,101.3 27.8,101.1 27.7,100.9 C27.7,102 28.2,103 29.3,104.1 C30.9,105.6 37.7,113 43,122.1 Z" id="Shape" fill="#D88577" fill-rule="nonzero"></path>
                <path d="M52.6,64.9 C52.6,64.9 61.7,69.5 64.4,60.8 C64.8,59.1 66.2,56 64.5,46.2 C62.4,46.2 59.9,46.2 59.9,46.2 C59.9,46.2 56.6,46.3 56.2,42.5 C56,41.2 56.7,39.7 58,39.2 C59.8,38.5 65.7,42.1 66.8,38 C67.4,35.2 65.9,32.2 67.1,31.1 C67.5,30.7 68.8,30.8 68.7,29.9 C68.5,27.8 66.8,26.7 66.8,25.3 C66.8,23.4 67.8,23.9 67.7,22.7 C67.4,17.7 66.1,15.4 66.1,15.4 L51.8,14.3 L43.7,14.7 L41.9,25.6 L41.4,37.4 L49,62 L52.6,64.9 Z" id="Shape" fill="#FDB7A2" fill-rule="nonzero"></path>
                <path d="M55.9,65.7 C55.9,65.7 53.2,90.3 30.2,95.2 C23.7,96.6 -2.9,96.1 0.3,75.6 C1.1,72 2.3,66.9 12.5,54.6 C14.5,52.1 21,46.5 13.5,40.7 C7.7,36.7 7,29.4 28.3,26.5 C31.2,26.2 36.1,24.8 34.7,18.3 C33.1,8 34.3,1.2 46.5,4.8 C50.1,5.6 51,6.4 55.2,3.4 C59.4,-0.2 68.1,-1 69.6,8.3 C69.8,9.6 70.9,11.9 74.3,12.8 C91.1,16.9 67.9,30.8 67.7,23 C67.6,18.3 66.1,15.4 66.1,15.4 C66.1,15.4 62.4,24.5 53,19.3 C50.4,17.8 46.1,18.9 47.2,25.6 C48.7,34.2 58.4,36.1 55.9,65.7 Z" id="Shape" fill="#5E0007" fill-rule="nonzero"></path>
                <path d="M41.8,294 C41.8,294 40.6,300.4 47.1,299.5 C51.8,298.9 52.9,298.9 55.1,299.3 C60.1,300.1 63.3,300.3 65.6,297.2 C66,296.4 66.4,295.1 63.7,294.6 C55.2,293.2 54.2,291.3 51.7,290.4 C50.4,289.9 50.1,291.2 49.2,291.5 C48.8,291.6 46.7,292 46.3,290.5 C45.9,289.2 42.4,290.2 41.8,294 Z" id="Shape" fill="#1D1D1D" fill-rule="nonzero"></path>
                <path d="M64.4,294 C64.4,294 63.2,300.4 69.7,299.5 C74.4,298.9 75.5,298.9 77.7,299.3 C82.7,300.1 85.9,300.3 88.2,297.2 C88.6,296.4 89,295.1 86.3,294.6 C77.8,293.2 76.8,291.3 74.3,290.4 C73,289.9 72.7,291.2 71.8,291.5 C71.4,291.6 69.3,292 68.9,290.5 C68.5,289.2 65,290.2 64.4,294 Z" id="Shape" fill="#1D1D1D" fill-rule="nonzero"></path>
                <polygon id="Shape" fill="#009245" fill-rule="nonzero" points="73.1 79.9 72 71.3 74.4 75.9 83 70.6"></polygon>
                <path d="M65.1,22.8 C65.1,22.8 61.9,22.2 61.4,23.8 C61.3,24.7 62.8,23.3 62.8,24.2 C62.8,25.2 63.5,25.9 64.5,25.1 C64.7,24 65.1,22.8 65.1,22.8 Z" id="Shape" fill="#D88577" fill-rule="nonzero"></path>
                <path d="M51.3,27.4 C51.3,27.4 50,26.2 51.1,24.7 C51.6,24.1 52.2,24.2 52.5,24.8 C52.6,24.9 52.7,25.5 52.1,25.6 C51.5,25.7 51.2,26.5 52,26.7 C52.9,27.1 52.1,28.4 51.3,27.4 Z" id="Shape" fill="#D88577" fill-rule="nonzero"></path>
                <path d="M113.1,90.2 L129.1,60.4 C129.1,60.4 140.3,65.3 153.2,62.8 C137.8,93 136,97.8 136,97.8 L113.1,90.2 Z" id="Shape" fill="#CCCCCC" fill-rule="nonzero"></path>
                <path d="M112.6,89.4 L128,59.3 C128,59.3 138.8,63.5 151.6,60.7 C135.7,96.5 135.7,96.5 135.7,96.5 L112.6,89.4 Z" id="Shape" fill="#E6E6E6" fill-rule="nonzero"></path>
                <path d="M111.6,89.3 L124.6,58.1 C124.6,58.1 136.8,62.4 149.5,59.2 C134.9,95.5 134.9,95.5 134.9,95.5 L111.6,89.3 Z" id="Shape" fill="#FFFFFF" fill-rule="nonzero"></path>
                <path d="M117.3,91.6 C117.3,91.6 119,88.5 121.7,87.4 C121.9,87.3 123.2,86.8 123.8,87.3 C124.1,87.6 124.2,88.2 123.8,88.6 C122.8,89.9 120,90.9 121.1,92.9 C120.7,92.7 117.3,91.6 117.3,91.6 Z" id="Shape" fill="#FDB7A2" fill-rule="nonzero"></path>
                <path d="M127.7,62.8 C127.7,62.8 135.9,64.8 144.4,63.7" id="Shape" stroke="#DCE7F7"></path>
                <path d="M126,65.8 C126,65.8 134.5,67.9 143,66.7" id="Shape" stroke="#DCE7F7"></path>
                <path d="M124.6,68.8 C124.6,68.8 133.3,70.9 141.8,69.7" id="Shape" stroke="#DCE7F7"></path>
                <path d="M123.1,71.9 C123.1,71.9 131.7,74 140.2,72.8" id="Shape" stroke="#DCE7F7"></path>
                <path d="M121.7,74.7 C121.7,74.7 130.5,77.2 139,76.1" id="Shape" stroke="#DCE7F7"></path>
                <path d="M120.5,77.6 C120.5,77.6 129.6,80.4 137.2,79.3 C134.7,85.2 134.7,85.2 134.7,85.2 C134.7,85.2 124.5,85 118.7,82.8 C120.1,79.2 120.5,77.6 120.5,77.6 Z" id="Shape" fill="#DCE7F7" fill-rule="nonzero"></path>
                <path d="M51.7,124.1 C51.7,124.1 50.8,130.3 45.7,135" id="Shape" stroke="#004D82"></path>
                <path d="M75.4,124.1 C75.4,124.1 75.1,130.4 79.2,135" id="Shape" stroke="#004D82"></path>
                <polygon id="Shape" fill="#005F89" fill-rule="nonzero" points="44.2 281.1 52.3 281 52.4 279.2 44.1 279.2"></polygon>
                <polygon id="Shape" fill="#005F89" fill-rule="nonzero" points="66.6 281.1 74.1 281.1 74.3 279.2 66.5 279.2"></polygon>
            </g>
            <circle id="Oval" fill="#DCE7F7" fill-rule="nonzero" cx="195.5" cy="139.5" r="6.5"></circle>
            <circle id="Oval" fill="#DCE7F7" fill-rule="nonzero" cx="904.3" cy="93.5" r="6.5"></circle>
            <circle id="Oval" fill="#DCE7F7" fill-rule="nonzero" cx="702.6" cy="598" r="6.5"></circle>
        </g>
    </g>
</svg>